<svg id="Capa_1" data-name="Capa 1" xmlns="http://www.w3.org/2000/svg" viewBox="0 0 1044.77 1044.76"><defs><style>.cls-1{fill:#4e5fad;}.cls-2{fill:#ab78c8;}.cls-3{fill:#9e75c3;}.cls-4{fill:#8b6db7;}.cls-5{fill:#3b54a0;}.cls-6{fill:#4157a3;}.cls-7{fill:#495ca9;}.cls-8{fill:#5661ac;}.cls-9{fill:#a576c7;}.cls-10{fill:#b07ada;}.cls-11{fill:#3c55a2;}.cls-12,.cls-25,.cls-38,.cls-40,.cls-46,.cls-78,.cls-81{fill:none;stroke-linecap:round;stroke-linejoin:round;stroke-width:0;}.cls-12{stroke:#9e75c3;}.cls-13{fill:#4258a5;}.cls-14{fill:#455aa6;}.cls-15{fill:#5360aa;}.cls-16{fill:#bc7eda;}.cls-17{fill:#5d63aa;}.cls-18{fill:#455aa7;}.cls-19{fill:#5662ac;}.cls-20{fill:#4a5ba5;}.cls-21{fill:#4f60ad;}.cls-22{fill:#c17fdb;}.cls-23{fill:#565fa5;}.cls-24{fill:#5c66b5;}.cls-25{stroke:#455aa6;}.cls-26{fill:#5763ae;}.cls-27{fill:#be7fdd;}.cls-28{fill:#c57fe0;}.cls-29{fill:#bc7dd6;}.cls-30{fill:#c881e3;}.cls-31{fill:#b37ad1;}.cls-32{fill:#6566ad;}.cls-33{fill:#9170ba;}.cls-34{fill:#7f6cba;}.cls-35{fill:#5d65b2;}.cls-36{fill:#6f68b2;}.cls-37{fill:#706ab6;}.cls-38{stroke:#5d65b2;}.cls-39{fill:#5061ae;}.cls-40{stroke:#495ca9;}.cls-41{fill:#5461ab;}.cls-42{fill:#6a68b5;}.cls-43{fill:#6065af;}.cls-44{fill:#6466b4;}.cls-45{fill:#6a66b0;}.cls-46{stroke:#565fa5;}.cls-47{fill:#5d63ae;}.cls-48{fill:#7368b0;}.cls-49{fill:#b87bd4;}.cls-50{fill:#a075c5;}.cls-51{fill:#c580e1;}.cls-52{fill:#bb7dd9;}.cls-53{fill:#a476c6;}.cls-54{fill:#ba7dd8;}.cls-55{fill:#9470bb;}.cls-56{fill:#a376c6;}.cls-57{fill:#826db7;}.cls-58{fill:#8d70bf;}.cls-59{fill:#836ab4;}.cls-60{fill:#7863a7;}.cls-61{fill:#876eb7;}.cls-62{fill:#766ab6;}.cls-63{fill:#866cb6;}.cls-64{fill:#9070bd;}.cls-65{fill:#916bb1;}.cls-66{fill:#846db8;}.cls-67{fill:#7d6cb6;}.cls-68{fill:#826cb7;}.cls-69{fill:#aa78cc;}.cls-70{fill:#8b6db8;}.cls-71{fill:#936cb7;}.cls-72{fill:#af7acf;}.cls-73{fill:#956fb8;}.cls-74{fill:#b67dd6;}.cls-75{fill:#bd7fda;}.cls-76{fill:#a276c7;}.cls-77{fill:#8e70c0;}.cls-78{stroke:#876eb7;}.cls-79{fill:#8f6cb4;}.cls-80{fill:#906cb0;}.cls-81{stroke:#a276c7;}</style></defs><path class="cls-1" d="M792.41,53.32l1.93.7c6.59,2.31,13.2,4.59,19.78,7,3.42,1.23,6.83,2.53,10.24,3.82,1.07-12.15,1.83-22.12,1.9-23.84,0-3.67-.16-4-2.78-5.06l-2.77-1.14.4-5.39c.41-4.9.25-5.64-1.79-8.66L817,17.45H805l-7.76,11.67L789.43,40.8l-7.1,1c-6.75.88-7.18,1.06-9.91,4.18l4.17,1.49C781.88,49.37,787.14,51.36,792.41,53.32Z" transform="translate(-448.23 -17.45)"/><path class="cls-2" d="M980.17,1058.55c-.33,1.79-.25,3.18.32,3.51a2.07,2.07,0,0,0,.84.14q1.38-7,2.77-13.9C982.09,1050,981.26,1052.3,980.17,1058.55Z" transform="translate(-448.23 -17.45)"/><path class="cls-2" d="M986.75,1035a8.66,8.66,0,0,0,.11-1h0c0-.35,0-.7,0-1l-1,.35.49,3.69Z" transform="translate(-448.23 -17.45)"/><path class="cls-2" d="M986.83,1032.88h0l0,0v-.07Z" transform="translate(-448.23 -17.45)"/><polygon class="cls-3" points="540.67 1017.54 540.66 1017.53 540.66 1017.53 540.67 1017.54"/><path class="cls-3" d="M1000.44,1041.27a25.16,25.16,0,0,1-4.74-3,15.59,15.59,0,0,0-6.81-3.3h0a19.1,19.1,0,0,0,2.66,6c1.1,1.91,2.17,3.84,3.25,5.76l4.82,8.59a17.43,17.43,0,0,1,8.06-6l3.42-1.36c-2.81-1.83-5.85-3.34-8.44-5.53A10.21,10.21,0,0,0,1000.44,1041.27Z" transform="translate(-448.23 -17.45)"/><path class="cls-4" d="M988.88,1035h0c-.29-.38-.71-.65-1-1h0Z" transform="translate(-448.23 -17.45)"/><path class="cls-4" d="M991.55,1041a19.1,19.1,0,0,1-2.66-6h0l-1-1-1,0h0a8.66,8.66,0,0,1-.11,1l-.39,2v.1l1.23,8.74-2.7,1.88c-.29.2-.55.4-.8.61q-1.38,6.95-2.77,13.9a55.77,55.77,0,0,0,7.08-.55l7-1,3.6-4.57c.2-.27.4-.5.59-.74l-4.82-8.59C993.72,1044.85,992.65,1042.92,991.55,1041Z" transform="translate(-448.23 -17.45)"/><path class="cls-5" d="M556.11,145c1.7-.76,3.45-1.45,5.12-2.28l2.49-1.23c-1.63.06-3.83,0-6.82-.12-11.31-.47-11.52-.85-11.51,8.87,2-1,4.08-2,6.08-3.11C553,146.33,554.55,145.72,556.11,145Z" transform="translate(-448.23 -17.45)"/><path class="cls-5" d="M593.22,126.82c3.13-1.67,6.48-2.95,9.74-4.41h0c-.48-2.56-1.85-4.75-3.06-7s-2.7-4.73-4-7.1c-1.22.45-3.64.59-9.08.91s-13.71.49-18.53.49c-6,0-9.06.33-9.55,1s-1.64,6.12-2.62,12.41c-1.55,9.39-1.71,11.43-.73,12,.57.41,3.75.74,7,.74,5.55,0,5.88.08,5.88,1.79a9.25,9.25,0,0,1-.11,1.69c2.73-1.36,5.45-2.72,8.17-4.11C581.92,132.36,587.66,129.79,593.22,126.82Z" transform="translate(-448.23 -17.45)"/><path class="cls-6" d="M721.05,49.46a22.51,22.51,0,0,0-4.94-2.7c-7.26-2.7-25.63-8.08-27.59-8.08-3.68,0-1.8,2.93,7.75,12l9,8.48q7.07-4.48,14.27-8.78C720.07,50.08,720.56,49.77,721.05,49.46Z" transform="translate(-448.23 -17.45)"/><path class="cls-6" d="M603,122.41h0c4.06-2.8,8.37-5.21,12.53-7.85,3.8-2.42,7.84-4.46,11.54-7.06-.09-5.38-1-9.23-2.28-9.23-.41,0-3.18,2.12-6.37,4.73-4.9,4.17-8.49,6.7-9.47,6.7a11,11,0,0,1-1.8-2.78c-1.79-3.34-2.45-3.67-6.12-3.1-2,.25-2.94,1-3.59,2.61-.36,1-.58,1.52-1.54,1.87,1.34,2.37,2.75,4.7,4,7.1S602.48,119.85,603,122.41Z" transform="translate(-448.23 -17.45)"/><path class="cls-7" d="M737.61,55.84l-2,0H731.5Q726,64.91,720.57,74q-5.84,9.72-11.66,19.43c.11,1.07.21,1.82.26,2.15l.41,2.7h2.58q6.55-10.92,13.1-21.84Q731.44,66.13,737.61,55.84Z" transform="translate(-448.23 -17.45)"/><path class="cls-7" d="M671,156.56c-.53.88-1,1.79-1.45,2.69,2,.44,4,1.16,6.13,1,1.24-2.41,2.15-5,3.63-7.27s2.79-4.68,4.19-7q6.7-11.18,13.43-22.35l-2.9,1.17-5.2,2.14q-4.57,7.61-9.17,15.2Q675.29,149.35,671,156.56Z" transform="translate(-448.23 -17.45)"/><path class="cls-7" d="M679.27,153c-1.48,2.3-2.39,4.86-3.63,7.27,1.84,1.31,4.07,1.43,6.14,2a3.17,3.17,0,0,1-.4-2.4c0-.14.22-.35.32-.34.28,0,.75.12.78.27.17.81.23,1.65.33,2.47h2c.56-.84,1.06-1.72,1.69-2.49a3.58,3.58,0,0,1,1.25-.8,1.45,1.45,0,0,1,2,1,3.83,3.83,0,0,1-.8,3.31c1.8,1.27,3.94,1.5,6,1.92a17.65,17.65,0,0,1,4.23,1.14h0a8.14,8.14,0,0,1,1.52-3.62,2.61,2.61,0,0,1,2.1-1.12,1.94,1.94,0,0,1,1.66.9,1.58,1.58,0,0,1-.05,1.86c-.67.71-1.44,1.33-2.16,2,1.8,1.27,3.94,1.5,6,1.92a17.72,17.72,0,0,1,4.24,1.14h0c.07-1.5.31-3,1.65-3.89a1.75,1.75,0,0,1,1.33-.3,1.62,1.62,0,0,1,.88,1,3.53,3.53,0,0,1-.79,3.19c1.83,1.31,4.07,1.43,6.14,2a3.2,3.2,0,0,1-.41-2.41c.05-.14.23-.35.32-.33.28,0,.76.12.79.27.17.81.23,1.64.32,2.47h2c.55-.84,1.05-1.72,1.68-2.5a3.94,3.94,0,0,1,1.26-.8,1.45,1.45,0,0,1,1.95,1,3.84,3.84,0,0,1-.8,3.31c1.8,1.27,4,1.5,6,1.92a17.65,17.65,0,0,1,4.23,1.14h0a8.18,8.18,0,0,1,1.52-3.63,2.65,2.65,0,0,1,2.11-1.11,1.93,1.93,0,0,1,1.66.9,1.56,1.56,0,0,1-.06,1.85c-.66.72-1.43,1.34-2.16,2h0c1.8,1.26,4,1.5,6,1.92a17.65,17.65,0,0,1,4.23,1.14h0c.08-1.5.32-3,1.65-3.9a1.76,1.76,0,0,1,1.33-.3,1.64,1.64,0,0,1,.88,1,3.52,3.52,0,0,1-.79,3.2c1.8,1.26,3.94,1.5,6,1.92a17.65,17.65,0,0,1,4.23,1.14h0c.07-1.51.32-3,1.65-3.9a1.76,1.76,0,0,1,1.33-.3,1.64,1.64,0,0,1,.88,1,3.52,3.52,0,0,1-.79,3.2c1.8,1.26,3.94,1.5,6,1.92a17.65,17.65,0,0,1,4.23,1.14h0a4.86,4.86,0,0,1,.53-.71c.61-.55.89-.48,1.39.29a2.58,2.58,0,0,1,.13.42,40.48,40.48,0,0,0,7.34,2c1.32.31,2.61.7,3.92,1h0c.07-1.5.31-2.95,1.65-3.89a1.75,1.75,0,0,1,1.33-.3,1.67,1.67,0,0,1,.88,1,3.5,3.5,0,0,1-.8,3.19c1.8,1.27,4,1.51,6,1.93a18.1,18.1,0,0,1,4.23,1.13h0c.08-1.5.32-2.95,1.66-3.89a1.73,1.73,0,0,1,1.32-.3,1.66,1.66,0,0,1,.89,1,3.5,3.5,0,0,1-.8,3.19c1.8,1.27,3.95,1.51,6,1.92A18.85,18.85,0,0,1,819,194h0a4.1,4.1,0,0,1,.53-.71c.61-.54.88-.48,1.38.29a1.53,1.53,0,0,1,.13.43,32.15,32.15,0,0,0,8.19,2.05c.34.34.68.68,1,1h1a4.3,4.3,0,0,1,3.42-2c1.19-.06,2.38-.08,3.57-.08h13.82a30.56,30.56,0,0,0,6.1-.55,31.86,31.86,0,0,1,5.07-.46c2.73-.07,5.46,0,8.19,0a37.54,37.54,0,0,0,9.15-.72,17.76,17.76,0,0,1,4.07-.29c2.9,0,5.8,0,8.69,0a36.51,36.51,0,0,0,8.65-.71,20.4,20.4,0,0,1,4.57-.3c4.44,0,8.87,0,13.31,0a26.84,26.84,0,0,0,5.07-.42,32,32,0,0,1,6.61-.58h8.19a34.76,34.76,0,0,0,8.13-.67,21.69,21.69,0,0,1,4.57-.34c3.07,0,6.14,0,9.21,0a33.18,33.18,0,0,0,7.63-.66,22.38,22.38,0,0,1,4.57-.35c4.43,0,8.87,0,13.3,0a26.15,26.15,0,0,0,5.09-.36c5.25-1.1,10.53-.56,15.8-.51a7.73,7.73,0,0,1,2.36.88,3.77,3.77,0,0,1,2.57,2.31c.38.95.71,1.92,1,2.89.82,2.42,1.61,4.85,2.43,7.27,4.09,11.93,8,23.91,12.34,35.76,3,8.17,5.52,16.49,8.53,24.64,3.47,9.44,6.6,19,9.81,28.52a9.62,9.62,0,0,0,2.18,4,9.68,9.68,0,0,1,1-2.32c2.26-2.88,3.32-6.3,4.47-9.67a13.88,13.88,0,0,0,.63-4,34.7,34.7,0,0,1,.77-7.6,13.34,13.34,0,0,0,.28-3,26.12,26.12,0,0,1,.62-5.57,25.36,25.36,0,0,0,.4-3c.21-1.68.41-3.37.63-5.05a22,22,0,0,0,.35-2.53,41.82,41.82,0,0,1,.91-9.12,19.15,19.15,0,0,0,.19-3.05c.12-1.35.28-2.7.44-4.05.18-1.52.4-3,.58-4.55a21.6,21.6,0,0,1,.33-3,27,27,0,0,0,.7-7.1,2.9,2.9,0,0,1,0-.51c.58-3.86.88-7.76,1.31-11.64.6-5.4,1.67-10.74,1.78-16.19a22,22,0,0,1,.4-3,12.16,12.16,0,0,0,.39-2c-.09-4.11,1-8.09,1.24-12.17a11.82,11.82,0,0,1,.28-2.53,30.19,30.19,0,0,0,.75-7.09c0-1.35.3-2.7.45-4,.18-1.51.46-3,.51-4.55.17-5.46.14-5.46-3-9.85-3.8-5.45-7-11.28-10.48-16.91q-5.79-9.33-11.53-18.67c-2.58-4.21-5.12-8.43-7.7-12.64-3.9-6.34-7.83-12.66-11.72-19-6,11.8-10.54,20.68-10.68,20.81s-6.43-.47-14.6-1.3c.6,4.44,1.06,8.91,2,13.31.71,3.49.87,7.09,1.4,10.63.76,5.22,1.63,10.42,2.46,15.64a19.88,19.88,0,0,1,.41,2.51c.06,4.12,1.11,8.09,1.71,12.13.45,3,.94,6.06,1.35,9.09.45,3.37.79,6.76,1.27,10.13.39,2.69.93,5.37,1.4,8.05.14.84.31,1.68.42,2.52.15,1.12-.19,2.12-.7,2.27-.78.22-1.27-.29-1.81-.68a116.66,116.66,0,0,1-9.65-7.56c-2.75-2.53-5.81-4.71-8.69-7.11-3.26-2.73-6.46-5.53-9.7-8.3-1-.88-2.08-1.75-3.13-2.62-3.92-3.28-8-6.38-12-9.57s-7.94-6.43-11.76-9.8-7.57-6.34-11.49-9.35c-3.1-2.37-5.91-5.13-8.92-7.64s-5.82-4.7-8.73-7.06a19.29,19.29,0,0,1-1.94-1.66c-.17-.18-.36-.34-.53-.52l-9,.45c-27,1.22-26.3,1.14-30.87,5l-4.08,3.51-5.71.32q-3.66,6.13-7.26,12.31c-2,3.38-3.82,6.84-5.76,10.24-2,3.55-4.09,7.07-6.13,10.6q-4.71,8.19-9.42,16.38c-2,3.54-4.13,7-6.17,10.59-1.79,3.09-3.54,6.21-5.34,9.3a11.75,11.75,0,0,1-1.22,1.61,1.44,1.44,0,0,1-1.86,0,22.2,22.2,0,0,1-1.39-2.13c-2.86-5.42-5.84-10.77-8.74-16.18-2.32-4.35-4.51-8.79-7-13-2.59-4.42-4.7-9.09-7.27-13.49s-4.69-9.09-7.26-13.49-4.53-8.78-7-13c-2.59-4.42-4.69-9.09-7.26-13.49s-4.48-8.82-7-13c-3.54-5.83-6.09-12.19-9.83-17.91a43.6,43.6,0,0,1-2.11-4.08,80.87,80.87,0,0,0-4.65-8.52,38.26,38.26,0,0,1-2.15-4.06,86.52,86.52,0,0,0-5.13-9.41,14.88,14.88,0,0,1-.88-1.56h-.2l-2,4.25-2,4.25-2-1.56c-1.52-1.15-3-1.54-7.82-1.61q-6.18,10.29-12.35,20.6-6.54,10.92-13.1,21.84H728l-.49,4.24-.4,4.33-8.25.25-8.33.24-1.06,5.8L708.28,119l-11.39,4.62q-6.72,11.17-13.43,22.35C682.06,148.32,680.73,150.71,679.27,153Z" transform="translate(-448.23 -17.45)"/><path class="cls-8" d="M757.76,61.47a38.26,38.26,0,0,0,2.15,4.06,80.87,80.87,0,0,1,4.65,8.52,43.6,43.6,0,0,0,2.11,4.08C770.41,83.85,773,90.21,776.5,96c2.56,4.21,4.54,8.76,7,13s4.67,9.07,7.26,13.49c2.5,4.25,4.53,8.76,7,13s4.68,9.07,7.26,13.49,4.68,9.07,7.27,13.49c2.48,4.25,4.67,8.69,7,13,2.9,5.41,5.88,10.76,8.74,16.18a22.2,22.2,0,0,0,1.39,2.13,1.44,1.44,0,0,0,1.86,0,11.75,11.75,0,0,0,1.22-1.61c1.8-3.09,3.55-6.21,5.34-9.3,2-3.54,4.13-7.05,6.17-10.59q4.73-8.18,9.42-16.38c2-3.53,4.11-7.05,6.13-10.6,1.94-3.4,3.79-6.86,5.76-10.24q3.58-6.18,7.26-12.31l-4.58.25c-5.71.25-10.69.57-11.18.65-3.35.33-19.35-1.38-19.6-2.12-.16-.57-.73-2.53-1.22-4.33-.74-2.93-2-4.32-8-9.22l-7.18-5.8,2.69-28.74c.28-3,.55-6,.8-8.82-3.41-1.29-6.82-2.59-10.24-3.82-6.58-2.37-13.19-4.65-19.78-7l-1.93-.7c-5.27-2-10.53-4-15.82-5.87L772.42,46a.93.93,0,0,0-.13.15l-2.86,3.42-9,.49-8.7.48a14.88,14.88,0,0,0,.88,1.56A86.52,86.52,0,0,1,757.76,61.47Z" transform="translate(-448.23 -17.45)"/><path class="cls-9" d="M1054.8,980l-16,12.59c-2.54,2-5.1,4-7.65,6q-2.2,1.72-4.39,3.48c-6.9,5.52-14,10.84-20.84,16.39-6.21,5-12.68,9.68-19,14.5v.07c0,.35,0,.7,0,1h0l1,0h0c.31.37.73.64,1,1h0a15.59,15.59,0,0,1,6.81,3.3,25.16,25.16,0,0,0,4.74,3,10.21,10.21,0,0,1,2.22,1.24c2.59,2.19,5.63,3.7,8.44,5.53l1.73-.68,2-8.57a78.71,78.71,0,0,1,4.49-13.23c2.36-4.65,2.69-4.82,16.41-13,13.06-7.68,14.12-8.49,15.76-12,1.06-2,4-7.84,6.77-12.82,4.09-7.68,5.64-9.72,9.88-13.23,4.13-3.31,5-4.06,8.08-11.35q-6.88,5.45-13.8,10.84C1059.91,976,1057.34,978,1054.8,980Z" transform="translate(-448.23 -17.45)"/><path class="cls-10" d="M976.75,1011.69c-.82-1.68-1.52-3.42-2.28-5.12s-1.37-3.12-2.12-4.64c-1.88-3.82-3.8-7.61-5.7-11.42a74.74,74.74,0,0,1-3.8-8.35,38.35,38.35,0,0,0-2-4.16c-2.13-4.26-4.29-8.51-6.38-12.79-1-2-1.77-4-2.7-6.05-1.15-2.47-2.31-4.93-3.53-7.36q-2.62-5.25-5.36-10.44a1.78,1.78,0,0,0-2.2-.82c-.33.09-.64.22-1,.33h0c-.54,2.39-2.12,4.26-3.29,6.32-3.11,5.48-6.37,10.87-9.58,16.29l-7.77,13.1.78.48c6.2,3.76,6.86,4.41,8.33,8.25s1.88,4.41,9.47,8.82l7.92,4.57,8.65.57c10,.57,15.52,2.37,16.58,5.14a18.44,18.44,0,0,1,.73,5.31c0,2.53,1,5.14,3.92,10.37,3.43,6.12,4.17,6.94,6.78,7.59l2.66.6c-1-2.21-2.1-4.37-3.19-6.54C980.08,1018.39,978.39,1015.06,976.75,1011.69Z" transform="translate(-448.23 -17.45)"/><path class="cls-10" d="M986.82,1032.88h0c-.44-1.28-1-2.52-1.5-3.75l.54,4.15,1-.35Z" transform="translate(-448.23 -17.45)"/><path class="cls-1" d="M924.8,115.85c2.91,2.36,5.86,4.66,8.73,7.06s5.82,5.27,8.92,7.64c3.92,3,7.77,6.08,11.49,9.35s7.77,6.62,11.76,9.8,8,6.29,12,9.57c1.05.87,2.1,1.74,3.13,2.62,3.24,2.77,6.44,5.57,9.7,8.3,2.88,2.4,5.94,4.58,8.69,7.11a116.66,116.66,0,0,0,9.65,7.56c.54.39,1,.9,1.81.68.51-.15.85-1.15.7-2.27-.11-.84-.28-1.68-.42-2.52-.47-2.68-1-5.36-1.4-8.05-.48-3.37-.82-6.76-1.27-10.13-.41-3-.9-6.06-1.35-9.09-.6-4-1.65-8-1.71-12.13a19.88,19.88,0,0,0-.41-2.51c-.83-5.22-1.7-10.42-2.46-15.64-.53-3.54-.69-7.14-1.4-10.63-.9-4.4-1.36-8.87-2-13.31-14-1.43-33.26-3.57-35.94-4.08-2.37-.49-4.65-.25-8.17.81-4,1.31-7,1.55-16.73,1.31l-11.84-.25-.74,8.25-.73,8.25-2.48.12c.17.18.36.34.53.52A19.29,19.29,0,0,0,924.8,115.85Z" transform="translate(-448.23 -17.45)"/><path class="cls-11" d="M1043.66,111.39q5.74,9.35,11.53,18.67c3.5,5.63,6.68,11.46,10.48,16.91a28.82,28.82,0,0,1,8.12.71,10.12,10.12,0,0,0,2.53.27,27.49,27.49,0,0,1,6.58.73,7.79,7.79,0,0,0,1.19.21c-.38-2.22-.64-4-.64-4.48,0-.82,1.47-3.92,3.19-6.94a34.35,34.35,0,0,0,4.16-11.27l1.06-5.71-5.22-7.6-5.23-7.67-7.76-.65a75.23,75.23,0,0,1-8-1c-.16-.17-3.75-12.82-7.92-28.17s-7.84-28.09-8.08-28.33a13.51,13.51,0,0,0-4.33-.82l-3.92-.41-13.8,27.27-3.36,6.62c3.89,6.34,7.82,12.66,11.72,19C1038.54,103,1041.08,107.18,1043.66,111.39Z" transform="translate(-448.23 -17.45)"/><path class="cls-12" d="M988.89,1035h0" transform="translate(-448.23 -17.45)"/><path class="cls-12" d="M988.88,1035l-1-1" transform="translate(-448.23 -17.45)"/><line class="cls-12" x1="539.64" y1="1016.52" x2="539.64" y2="1016.52"/><path class="cls-13" d="M601.94,124.47h0l1-2h0c-3.26,1.46-6.61,2.74-9.74,4.41-5.56,3-11.3,5.54-16.91,8.39-2.72,1.39-5.44,2.75-8.17,4.11-.28,1.52-1.25,2.08-4.42,2.19l-2.49,1.23c-1.67.83-3.42,1.52-5.12,2.28s-3.15,1.31-4.64,2.13c-2,1.09-4,2.11-6.08,3.11v9.66l5.47,6.37,5.39,6.37.65,16.49c.39,8.88,1,16.28,1.89,22.57l40.6-81.15C600.37,128.6,601.55,126.7,601.94,124.47Z" transform="translate(-448.23 -17.45)"/><path class="cls-13" d="M529.82,269l-3.12-.12a9.64,9.64,0,0,0,2.56.85C529.44,269.49,529.63,269.25,529.82,269Z" transform="translate(-448.23 -17.45)"/><path class="cls-13" d="M471.89,312.72l.88.83-.88-.83.88.83.18.17h0c.69-.26,1.31-.74,1.12-1.47-.51-2-1.12-3.92-1.78-5.85-.09-.24-.18-.47-.26-.71-.39,4.34-.69,5.78-1.88,6.26.24.24.48.48.73.71Z" transform="translate(-448.23 -17.45)"/><path class="cls-14" d="M603,122.42h0l-1,2a21.38,21.38,0,0,1,8.38,3.53,9.1,9.1,0,0,0,1.32.77c5.46,2.73,10.68,5.89,16,9,3.81,2.21,7.72,4.24,11.58,6.37q4,2.22,8,4.51,6.4,3.64,12.8,7.32a18.94,18.94,0,0,0,5.61,2.33c1.33.28,2.63.66,4,1h0c.48-.9.92-1.81,1.45-2.69q4.32-7.22,8.66-14.41,4.59-7.6,9.17-15.2l-9.09,3.74-21.64.57-21.63.58-4-5.56c-4.4-6.12-5.3-9.06-5.38-18,0-.27,0-.54,0-.81-3.7,2.6-7.74,4.64-11.54,7.06C611.33,117.21,607,119.62,603,122.42Z" transform="translate(-448.23 -17.45)"/><path class="cls-14" d="M731.5,55.82h-3.71l-3.59-3.67a22.59,22.59,0,0,0-3.15-2.69c-.49.31-1,.62-1.48.92q-7.2,4.29-14.27,8.78l.61.58L707.3,76.4c.62,6.9,1.24,13.61,1.61,17q5.82-9.72,11.66-19.43Q726,64.91,731.5,55.82Z" transform="translate(-448.23 -17.45)"/><path class="cls-15" d="M670.65,165.4a.7.7,0,0,1,.26-.39c.11-.06.4-.06.43,0,.72,1.53,1.49,3,2.11,4.62q3.28,8.3,6.47,16.63c2.3,6,4.55,12.08,6.86,18.11,2.68,7,5.42,13.94,8.1,20.91,2.45,6.35,4.84,12.71,7.28,19.05,2.38,6.18,4.81,12.35,7.19,18.53a5.57,5.57,0,0,0,2.12,2.79c5.92-3,11.52-6.58,17.32-9.81,5.51-3.05,10.71-6.6,16.25-9.61,4-2.19,7.89-4.7,11.82-7.07.15-.09.28-.21.43-.29,5.67-2.75,10.89-6.3,16.34-9.45,4.27-2.46,8.69-4.67,12.74-7.51a22.16,22.16,0,0,1,3.06-1.84c5.69-2.73,10.9-6.3,16.36-9.43,5.76-3.29,11.49-6.63,17.23-9.95,2.07-1.19,4.12-2.4,6.18-3.59h0v-1A32.15,32.15,0,0,1,821,194h-2a18.85,18.85,0,0,0-4.24-1.14c-2.06-.41-4.21-.65-6-1.92h-3.07a18.1,18.1,0,0,0-4.23-1.13c-2.06-.42-4.21-.66-6-1.93h-3.06c-1.31-.35-2.6-.74-3.92-1a40.48,40.48,0,0,1-7.34-2H779a17.65,17.65,0,0,0-4.23-1.14c-2.07-.42-4.21-.66-6-1.92h-3.07a17.65,17.65,0,0,0-4.23-1.14c-2.07-.42-4.21-.66-6-1.92h-3.07a17.65,17.65,0,0,0-4.23-1.14c-2.06-.42-4.21-.66-6-1.92h-3.07a17.65,17.65,0,0,0-4.23-1.14c-2.06-.42-4.21-.65-6-1.92a5.94,5.94,0,0,1-4.09-1h-3.07c-2.07-.61-4.31-.73-6.14-2H712.5a17.72,17.72,0,0,0-4.24-1.14c-2.06-.42-4.2-.65-6-1.92h-3.07a17.65,17.65,0,0,0-4.23-1.14c-2.07-.42-4.21-.65-6-1.92a6,6,0,0,1-4.1-1h-3.07c-2.07-.61-4.3-.73-6.14-2-2.12.14-4.1-.58-6.13-1h0c0,1.31,0,2.62,0,3.93a5.46,5.46,0,0,0,1,3.23h0C670.56,166.08,670.58,165.73,670.65,165.4Z" transform="translate(-448.23 -17.45)"/><path class="cls-13" d="M1234.54,236.81q4.29,15.24,8.59,30.48c1.11,3.93,2.17,7.87,3.27,11.81q2.61,9.34,5.24,18.69,2.2,7.86,4.4,15.74,4.29,15.24,8.58,30.48c1.24,4.42,2.44,8.86,3.66,13.29.82,3,1.64,5.91,2.49,8.85a3.76,3.76,0,0,0,2.71,2.8h0a30,30,0,0,1,3.42-3.76c2.28-1.78,4.41-3.73,6.65-5.55,5.81-4.72,11.81-9.19,17.57-13.95,2.75-2.28,5.69-4.3,8.25-6.84a69.2,69.2,0,0,1,5.92-4.83c5.87-4.64,11.81-9.18,17.59-13.92,2.5-2,4.93-4.17,7.45-6.19,4.11-3.29,8.19-6.64,12.3-9.93,3.32-2.65,6.76-5.15,9.88-8,1.62-1.5,3.42-2.81,5.16-4.16q4.83-3.76,9.68-7.49a1.83,1.83,0,0,1,2.33.21,10.84,10.84,0,0,1,1,1.16c3.23,5,6.68,9.86,9.75,15,2.8,4.66,6,9.08,9,13.63,6.54,10,13.21,19.83,19.55,29.91,4.52,7.22,9.35,14.22,14,21.36,2.5,3.85,4.94,7.75,7.41,11.62a4.16,4.16,0,0,1,.8.62c3.54,4.59,7.86,8.44,11.88,12.57,1.54,1.58,3.12,3.12,4.67,4.69a14.49,14.49,0,0,1,1.75,1.85c2.92,4.23,6.8,7.56,10.33,11.22,3,3.05,6.15,5.85,8.56,9.4a3.9,3.9,0,0,0,.31.4c.16-2.31,1.9-4.36,5.86-7.08,1.3-.9,3-3.84,4.82-8.57l2.77-7.19.49-30.62.41-30.62-2.69-3.75c-2.29-3.27-2.86-5.15-4.33-14.21a110.21,110.21,0,0,0-2-11c-.17-.33-10.13-.82-22-1.06l-21.8-.57-7.84-5.47a175.66,175.66,0,0,1-17.31-14.54l-1.7-1.63a18.25,18.25,0,0,1-3.9.4c-8,0-16,0-24,0a7.13,7.13,0,0,1-4.39-1,5.69,5.69,0,0,1-1,.19,1.56,1.56,0,0,1-1.63-1,12.88,12.88,0,0,1-.58-2c-1.81-7.42-3.75-14.81-5.4-22.28-.32-1.44-.67-2.87-1-4.3a97.63,97.63,0,0,0-40.42-8.89,56.21,56.21,0,0,1-16.41-2,65.7,65.7,0,0,0-9.64-2c-1.06,0-11.51-3-23.27-6.61l-21.31-6.61-2.28,2.69a13.49,13.49,0,0,0-2.29,3.35c0,.9-2.37.73-5.55-.41-1.88-.65-4.82-3.67-9.8-9.88-6.94-8.73-7.19-9-12-10.29-.36-.09-.75-.21-1.17-.35q1.47,5.24,2.93,10.47Q1232.34,228.93,1234.54,236.81Z" transform="translate(-448.23 -17.45)"/><path class="cls-11" d="M1377.76,278.27a12.88,12.88,0,0,0,.58,2,1.56,1.56,0,0,0,1.63,1,5.69,5.69,0,0,0,1-.19c2.37-3.12,4.57-6.37,7.48-9a56.4,56.4,0,0,1,5.79-6.85A118.28,118.28,0,0,0,1376.16,254c-1.59-.81-3.2-1.57-4.81-2.29.34,1.43.69,2.86,1,4.3C1374,263.46,1376,270.85,1377.76,278.27Z" transform="translate(-448.23 -17.45)"/><path class="cls-16" d="M986.83,1032.88h0l0,0c6.35-4.82,12.82-9.5,19-14.5,6.88-5.55,13.94-10.87,20.84-16.39q2.19-1.76,4.39-3.48c2.55-2,5.11-4,7.65-6l16-12.59c2.54-2,5.11-3.94,7.66-5.93q6.9-5.4,13.8-10.84c.65-1.51,1.39-3.31,2.29-5.47l.74-1.76c-.12-.16-.24-.32-.35-.49a48.08,48.08,0,0,0-6.06-6.91,9.31,9.31,0,0,1-1.34-1.54,43.62,43.62,0,0,0-5.34-6.18c-1.83-2-3.45-4.2-5.28-6.22s-3.64-3.58-5-5.78a14.11,14.11,0,0,0-2-2.3,43.05,43.05,0,0,1-5.36-6.15,21.75,21.75,0,0,0-2.77-3,25.57,25.57,0,0,1-4-4.66,3.55,3.55,0,0,0-.62-.81c-3.77-3.48-6.6-7.79-10.21-11.41a39.43,39.43,0,0,1-3.3-3.89,10,10,0,0,0-2.92-2.81h-2.06a70.76,70.76,0,0,0-9,4.91,11.67,11.67,0,0,1-1.34.74c-5.11,2.73-10.25,5.42-15.32,8.21-5.23,2.87-10.39,5.86-15.61,8.74-4.47,2.47-9,4.84-13.48,7.31-5.21,2.88-10.36,5.9-15.62,8.7-3.75,2-7.39,4.28-11.56,5.38l-1,2.05c0,.34,0,.68,0,1h0c.32-.11.63-.24,1-.33a1.78,1.78,0,0,1,2.2.82q2.73,5.19,5.36,10.44c1.22,2.43,2.38,4.89,3.53,7.36.93,2,1.73,4.07,2.7,6.05,2.09,4.28,4.25,8.53,6.38,12.79a38.35,38.35,0,0,1,2,4.16,74.74,74.74,0,0,0,3.8,8.35c1.9,3.81,3.82,7.6,5.7,11.42.75,1.52,1.42,3.09,2.12,4.64s1.46,3.44,2.28,5.12c1.64,3.37,3.33,6.7,5,10,1.09,2.17,2.19,4.33,3.19,6.54l.28.06.1.79C985.87,1030.36,986.39,1031.6,986.83,1032.88Z" transform="translate(-448.23 -17.45)"/><path class="cls-17" d="M1469.78,408.11c-3.53-3.66-7.41-7-10.33-11.22a14.49,14.49,0,0,0-1.75-1.85c-1.55-1.57-3.13-3.11-4.67-4.69-4-4.13-8.34-8-11.88-12.57a4.16,4.16,0,0,0-.8-.62l-3.07,0c2.76,1.33,3.37,3.52,2.77,6.38-1.3,6.16-2.07,12.41-2.85,18.66-.23,1.86-.62,3.69-.94,5.54-1.42,8.22-2.24,16.52-3.8,24.72-.64,3.34-.89,6.74-1.36,10.11-.28,2-.63,4-1,6.05-1.41,8.22-2.23,16.53-3.8,24.72-.36,1.93-.6,3.88-.83,5.83l.31-.27a94.06,94.06,0,0,0,12.74-14l7-9.31,5.31-1.06c2.86-.57,5.55-1.39,6-1.8s.9-2.93,1.14-5.71l.49-5,3.35-.9c7.59-1.88,7.19-1.47,12.17-11.27,2.53-5.06,4.65-10.28,4.65-11.59,0-.12,0-.24,0-.35a3.9,3.9,0,0,1-.31-.4C1475.93,414,1472.73,411.16,1469.78,408.11Z" transform="translate(-448.23 -17.45)"/><path class="cls-18" d="M1051.39,297.32l-1.07-1A7.68,7.68,0,0,0,1051.39,297.32Z" transform="translate(-448.23 -17.45)"/><path class="cls-18" d="M1076.32,148a10.12,10.12,0,0,1-2.53-.27,28.82,28.82,0,0,0-8.12-.71c3.19,4.39,3.22,4.39,3,9.85,0,1.52-.33,3-.51,4.55-.15,1.35-.42,2.7-.45,4a30.19,30.19,0,0,1-.75,7.09,11.82,11.82,0,0,0-.28,2.53c-.19,4.08-1.33,8.06-1.24,12.17a12.16,12.16,0,0,1-.39,2,22,22,0,0,0-.4,3c-.11,5.45-1.18,10.79-1.78,16.19-.43,3.88-.73,7.78-1.31,11.64a2.9,2.9,0,0,0,0,.51,27,27,0,0,1-.7,7.1,21.6,21.6,0,0,0-.33,3c-.18,1.52-.4,3-.58,4.55-.16,1.35-.32,2.7-.44,4.05a19.15,19.15,0,0,1-.19,3.05,41.82,41.82,0,0,0-.91,9.12,22,22,0,0,1-.35,2.53c-.22,1.68-.42,3.37-.63,5.05a25.36,25.36,0,0,1-.4,3,26.12,26.12,0,0,0-.62,5.57,13.34,13.34,0,0,1-.28,3,34.7,34.7,0,0,0-.77,7.6,13.88,13.88,0,0,1-.63,4c-1.15,3.37-2.21,6.79-4.47,9.67a9.68,9.68,0,0,0-1,2.32c0,.34,0,.68,0,1l1,1h0l1.07,1c1.88,1.15,3.8,2.24,5.64,3.47q54.33,36.16,108.65,72.37c2.12,1.41,4.3,2.72,6.46,4.08h0l1-.11h0c.13-1.18.18-2.38.41-3.54,1-5.18,2.08-10.35,3.09-15.53,1.84-9.35,3.77-18.68,5.42-28.07.9-5.2,2-10.36,2.93-15.55,2.27-12.38,4.89-24.7,7.17-37.08,1.64-8.87,3.49-17.7,5.16-26.56,1.26-6.69,2.4-13.4,3.6-20.1.06-.33.11-.67.18-1,2.32-10.07,4-20.26,6.07-30.38a25.37,25.37,0,0,0-11.46-3.8c-5.64-.81-6.78-1.22-8.17-3.18-.9-1.23-3.26-4.33-5.3-7l-3.68-4.74-18.78.08c-15.51.08-18.94.33-19.67,1.31-.49.65-2,4.73-3.19,9-2.12,7-2.61,7.92-5.47,9.8l-3.1,2-2.94-1.8-2.94-1.88.49-6.85.49-6.86,5.8-7.76c4.57-6.29,5.47-8,4.65-8.74-.65-.65-6.78-1.3-15.76-1.87-12.49-.82-14.86-1.15-15.76-2.37-3-4.25-3.18-4.33-9.79-4.33h-6.37l-1.39-7.18c-.27-1.48-.53-3-.75-4.26a7.79,7.79,0,0,1-1.19-.21A27.49,27.49,0,0,0,1076.32,148Z" transform="translate(-448.23 -17.45)"/><path class="cls-19" d="M993,202.21l1-1C993.69,201.54,993.31,201.84,993,202.21Z" transform="translate(-448.23 -17.45)"/><path class="cls-19" d="M997.1,199.13l1-1C997.78,198.47,997.41,198.77,997.1,199.13Z" transform="translate(-448.23 -17.45)"/><path class="cls-19" d="M1009.37,189.93l1-1A13.88,13.88,0,0,0,1009.37,189.93Z" transform="translate(-448.23 -17.45)"/><path class="cls-19" d="M1009.37,189.93l-2,1c-.32.37-.7.67-1,1h0l-1,1,1-1c-.33.35-.71.65-1,1l-2,1c-.31.37-.69.67-1,1h0l-1,1,1-1c-.32.36-.7.66-1,1l-2.05,1c-.32.37-.7.67-1,1h0l-1,1h0l-2.05,1c-.31.37-.69.67-1,1h0l-1,1-50.14,37.52Q922.47,255,902.12,270.28c-1.49,1.12-2.89,2.36-4.33,3.55,2.43,1.41,5.19,1.55,7.86,2,4,.64,8.09,1.16,12.14,1.73.67.09,1.34.25,2,.3,6.46.46,12.83,1.65,19.21,2.7a15.49,15.49,0,0,0,2,.34c5.3.14,10.46,1.34,15.7,1.9,3.56.37,7.08,1.05,10.65,1.33,1.35.11,2.67.52,4,.67,3.9.42,7.7,1.46,11.66,1.44a35.58,35.58,0,0,1,5.55.88c3.86.61,7.73,1.2,11.6,1.8a8.89,8.89,0,0,0,1.53.19c4.63,0,9.13,1,13.65,1.83a9.89,9.89,0,0,0,1.52.2c5.13.13,10.14,1.21,15.2,1.85,3.38.43,6.75.91,10.14,1.25a55.4,55.4,0,0,1,6,1.09h1c0-.33,0-.67,0-1a9.62,9.62,0,0,1-2.18-4c-3.21-9.53-6.34-19.08-9.81-28.52-3-8.15-5.55-16.47-8.53-24.64-4.31-11.85-8.25-23.83-12.34-35.76-.82-2.42-1.61-4.85-2.43-7.27-.33-1-.66-1.94-1-2.89a3.77,3.77,0,0,0-2.57-2.31h0Z" transform="translate(-448.23 -17.45)"/><path class="cls-20" d="M831.25,197.1a9.82,9.82,0,0,0,1,1Z" transform="translate(-448.23 -17.45)"/><path class="cls-20" d="M832.27,198.12c2.51,3,4.82,6.16,7.45,9.07s4.76,5.78,7.12,8.69a9.31,9.31,0,0,0,.94,1.21c3.09,2.72,5.29,6.22,8,9.24,2.28,2.52,4.38,5.21,6.54,7.84,1.42,1.7,2.78,3.43,4.33,5,.83.85,1.55,1.8,2.3,2.72s1.47,1.88,2.24,2.79c2.43,2.85,5,5.6,7.27,8.56,1.57,2,3.28,3.9,5,5.81,2.48,2.8,4.84,5.71,7.15,8.66a27.5,27.5,0,0,0,6.13,6.1h1c1.44-1.19,2.84-2.43,4.33-3.55q20.36-15.28,40.74-30.55L993,202.21c.31-.37.69-.67,1-1h0l1-1,2.05-1h0c.31-.36.68-.66,1-1h0c.33-.35.71-.65,1-1l2.05-1c.31-.36.69-.66,1-1h0c.33-.35.71-.65,1-1l2-1c.31-.36.69-.66,1-1h0l1-1-1,1c.33-.35.71-.65,1-1l2-1a13.88,13.88,0,0,1,1-1h0A7.73,7.73,0,0,0,1008,188c-5.27-.05-10.55-.59-15.8.51a26.15,26.15,0,0,1-5.09.36c-4.43,0-8.87,0-13.3,0a22.38,22.38,0,0,0-4.57.35,33.18,33.18,0,0,1-7.63.66c-3.07,0-6.14,0-9.21,0a21.69,21.69,0,0,0-4.57.34,34.76,34.76,0,0,1-8.13.67h-8.19a32,32,0,0,0-6.61.58,26.84,26.84,0,0,1-5.07.42c-4.44.06-8.87,0-13.31,0a20.4,20.4,0,0,0-4.57.3,36.51,36.51,0,0,1-8.65.71c-2.89,0-5.79,0-8.69,0a17.76,17.76,0,0,0-4.07.29,37.54,37.54,0,0,1-9.15.72c-2.73,0-5.46-.05-8.19,0a31.86,31.86,0,0,0-5.07.46,30.56,30.56,0,0,1-6.1.55H838.24c-1.19,0-2.38,0-3.57.08a4.3,4.3,0,0,0-3.42,2h0Zm165.84,0,1-1Zm4.1-3.07,1-1Z" transform="translate(-448.23 -17.45)"/><path class="cls-20" d="M995,200.17l-1,1C994.35,200.84,994.73,200.54,995,200.17Z" transform="translate(-448.23 -17.45)"/><path class="cls-21" d="M830.22,197.1a24.93,24.93,0,0,1-.31,4.07,30,30,0,0,0-.71,7.61,11.14,11.14,0,0,1,0,1.53c-.31,2.54-.74,5.06-.95,7.6-.19,2.37,0,4.77-.63,7.11a5.23,5.23,0,0,0-.28,1.5c.21,5.13-1.09,10.15-1.2,15.25a4.47,4.47,0,0,1,0,.52c-.33,2.7-.79,5.39-1,8.1a49.25,49.25,0,0,1-.75,8.12,22.48,22.48,0,0,0-.32,4.58,33.69,33.69,0,0,1-.59,6.09,30.73,30.73,0,0,0-.42,5.08,33.69,33.69,0,0,1-.59,6.09,24.91,24.91,0,0,0-.43,4.57,29.76,29.76,0,0,1-.7,7.1,9.74,9.74,0,0,0-.3,2.53,36.21,36.21,0,0,1-.88,8.62,10.84,10.84,0,0,0-.17,2.55,28.37,28.37,0,0,1-.78,8.11,1.51,1.51,0,0,0-.08.51c.2,5.13-1.08,10.14-1.22,15.25a16.9,16.9,0,0,1-.31,3.56,30,30,0,0,0-.71,7.61,25,25,0,0,1-.57,6.09,16.22,16.22,0,0,0-.41,3.54,32.43,32.43,0,0,1-.8,7.61,11.34,11.34,0,0,0-.24,2.54c-.06,2.89.06,5.79-.77,8.63a3.32,3.32,0,0,0,.75,2.87l4.79-5.31c.57-.63,1.18-1.24,1.69-1.91,2.89-3.79,6-7.36,9.13-11,2.53-3,4.91-6.09,7.41-9.1,2.07-2.49,4.17-4.94,6.23-7.43,3.16-3.79,6.34-7.56,9.45-11.39,2.46-3,5.15-5.9,7.62-8.93,2-2.5,4.18-4.94,6.21-7.44,3-3.71,6.08-7.34,9.16-11,2.53-3,4.91-6.09,7.41-9.1s4.77-5.77,7.28-8.55a20.1,20.1,0,0,0,3.47-5h0l2-2.06a27.5,27.5,0,0,1-6.13-6.1c-2.31-2.95-4.67-5.86-7.15-8.66-1.7-1.91-3.41-3.79-5-5.81-2.28-3-4.84-5.71-7.27-8.56-.77-.91-1.48-1.86-2.24-2.79s-1.47-1.87-2.3-2.72c-1.55-1.6-2.91-3.33-4.33-5-2.16-2.63-4.26-5.32-6.54-7.84-2.75-3-5-6.52-8-9.24a9.31,9.31,0,0,1-.94-1.21c-2.36-2.91-4.61-5.91-7.12-8.69s-4.94-6.07-7.45-9.07a9.82,9.82,0,0,1-1-1h-1Z" transform="translate(-448.23 -17.45)"/><path class="cls-7" d="M702.26,166.41c.72-.66,1.49-1.28,2.16-2a1.58,1.58,0,0,0,.05-1.86,1.94,1.94,0,0,0-1.66-.9,2.61,2.61,0,0,0-2.1,1.12,8.14,8.14,0,0,0-1.52,3.62h3.07Z" transform="translate(-448.23 -17.45)"/><path class="cls-7" d="M742.18,175.62h0c.73-.66,1.5-1.28,2.16-2a1.56,1.56,0,0,0,.06-1.85,1.93,1.93,0,0,0-1.66-.9,2.65,2.65,0,0,0-2.11,1.11,8.18,8.18,0,0,0-1.52,3.63h3.07Z" transform="translate(-448.23 -17.45)"/><path class="cls-7" d="M689,163.34a3.83,3.83,0,0,0,.8-3.31,1.45,1.45,0,0,0-2-1,3.58,3.58,0,0,0-1.25.8c-.63.77-1.13,1.65-1.69,2.49h0A6,6,0,0,0,689,163.34Z" transform="translate(-448.23 -17.45)"/><path class="cls-7" d="M728.87,172.55a3.84,3.84,0,0,0,.8-3.31,1.45,1.45,0,0,0-1.95-1,3.94,3.94,0,0,0-1.26.8c-.63.78-1.13,1.66-1.68,2.5h0A5.94,5.94,0,0,0,728.87,172.55Z" transform="translate(-448.23 -17.45)"/><path class="cls-7" d="M755.49,178.69a3.52,3.52,0,0,0,.79-3.2,1.64,1.64,0,0,0-.88-1,1.76,1.76,0,0,0-1.33.3c-1.33.94-1.57,2.4-1.65,3.9h3.07Z" transform="translate(-448.23 -17.45)"/><path class="cls-7" d="M768.8,181.76a3.52,3.52,0,0,0,.79-3.2,1.64,1.64,0,0,0-.88-1,1.76,1.76,0,0,0-1.33.3c-1.33.94-1.58,2.39-1.65,3.9h3.07Z" transform="translate(-448.23 -17.45)"/><path class="cls-7" d="M795.41,187.89a3.5,3.5,0,0,0,.8-3.19,1.67,1.67,0,0,0-.88-1,1.75,1.75,0,0,0-1.33.3c-1.34.94-1.58,2.39-1.65,3.89h3.06Z" transform="translate(-448.23 -17.45)"/><path class="cls-7" d="M808.72,191a3.5,3.5,0,0,0,.8-3.19,1.66,1.66,0,0,0-.89-1,1.73,1.73,0,0,0-1.32.3c-1.34.94-1.58,2.39-1.66,3.89h3.07Z" transform="translate(-448.23 -17.45)"/><path class="cls-7" d="M715.57,169.48a3.53,3.53,0,0,0,.79-3.19,1.62,1.62,0,0,0-.88-1,1.75,1.75,0,0,0-1.33.3c-1.34.93-1.58,2.39-1.65,3.89h3.07Z" transform="translate(-448.23 -17.45)"/><path class="cls-7" d="M682.81,162.31c-.1-.82-.16-1.66-.33-2.47,0-.15-.5-.23-.78-.27-.1,0-.27.2-.32.34a3.17,3.17,0,0,0,.4,2.4h1Z" transform="translate(-448.23 -17.45)"/><path class="cls-7" d="M722.73,171.52c-.09-.83-.15-1.66-.32-2.47,0-.15-.51-.24-.79-.27-.09,0-.27.19-.32.33a3.2,3.2,0,0,0,.41,2.41h1Z" transform="translate(-448.23 -17.45)"/><path class="cls-7" d="M781.09,184.82a2.58,2.58,0,0,0-.13-.42c-.5-.77-.78-.84-1.39-.29a4.86,4.86,0,0,0-.53.71h2.05Z" transform="translate(-448.23 -17.45)"/><path class="cls-7" d="M821,194a1.53,1.53,0,0,0-.13-.43c-.5-.77-.77-.83-1.38-.29a4.1,4.1,0,0,0-.53.71h2Z" transform="translate(-448.23 -17.45)"/><path class="cls-21" d="M829.2,197.1h1c-.35-.33-.69-.67-1-1v1Z" transform="translate(-448.23 -17.45)"/><path class="cls-22" d="M936.48,947.19c1.17-2.06,2.75-3.93,3.29-6.32h0c0-.35,0-.69,0-1a11.2,11.2,0,0,0-1.92.68c-5.47,3.12-10.91,6.31-16.39,9.42-4,2.26-8.08,4.41-12.1,6.64-2.53,1.4-5.05,2.84-7.55,4.29-3.4,2-6.76,4-10.16,5.91l-1.43.8c-.18.51,0,.88.55,1.4.74.57,6,1.71,11.84,2.53,9.85,1.33,10.8,1.54,16.53,5.07l7.77-13.1C930.11,958.06,933.37,952.67,936.48,947.19Z" transform="translate(-448.23 -17.45)"/><path class="cls-7" d="M670.53,173.57a3.15,3.15,0,0,1,.22.33A2.1,2.1,0,0,0,670.53,173.57Z" transform="translate(-448.23 -17.45)"/><path class="cls-7" d="M671.55,184.83a3.88,3.88,0,0,1,.23.33A2.44,2.44,0,0,0,671.55,184.83Z" transform="translate(-448.23 -17.45)"/><path class="cls-7" d="M529.25,270.74h0c2.32.5,4.65,1,7,1.5,4.14.94,8.28,1.91,12.42,2.87,1,.23,2,.46,3,.73,9.16,2.57,18.5,4.45,27.7,6.92,2.13.57,4.31.94,6.47,1.41,1.33.3,2.67.55,4,.95,9.27,2.84,18.85,4.48,28.2,7,2.95.8,6,1.24,8.95,2,8.86,2.37,17.83,4.33,26.72,6.61,2.8.72,5.64,1.27,8.45,1.91.67.15,1.33.31,2,.49,4.59,1.26,9.2,2.45,13.85,3.45a25.2,25.2,0,0,1,2.89,1h0l1-.05h0a36.86,36.86,0,0,0-.67-9.13,20.35,20.35,0,0,1-.32-4.56,37.31,37.31,0,0,0-.68-7.6,32.85,32.85,0,0,1-.36-5.08,24.75,24.75,0,0,0-.22-4.57,44.87,44.87,0,0,1-.83-10.14,10.19,10.19,0,0,0-.23-2.53,35.85,35.85,0,0,1-.79-9.12,15.45,15.45,0,0,0-.3-3.54,34.59,34.59,0,0,1-.72-8.11,23.16,23.16,0,0,0-.4-4.56,31.33,31.33,0,0,1-.61-7.09,32.64,32.64,0,0,0-.53-6.08,47,47,0,0,1-.48-5.57,34.07,34.07,0,0,0-.3-5.08,39.62,39.62,0,0,1-.75-8.61,11.88,11.88,0,0,0-.15-3.05c-1.13-4.36-.81-8.79-.86-13.2a2.1,2.1,0,0,1-.22-.33c-.94-1.46-.77-3.14-.8-4.78v-6.14a3.39,3.39,0,0,1-.23-.34c-.93-1.46-.76-3.14-.79-4.78v-7.16h0a5.46,5.46,0,0,1-1-3.23c0-1.31,0-2.62,0-3.93-1.32-.33-2.62-.71-4-1a18.94,18.94,0,0,1-5.61-2.33q-6.41-3.66-12.8-7.32-4-2.28-8-4.51c-3.86-2.13-7.77-4.16-11.58-6.37-5.28-3.07-10.5-6.23-16-9a9.1,9.1,0,0,1-1.32-.77,21.38,21.38,0,0,0-8.38-3.53h0c-.39,2.23-1.57,4.13-2.55,6.1l-40.6,81.15c.22,1.58.46,3.1.72,4.54l1.88,10.62-5.88,17.55c-3.26,9.63-6.53,19.27-7.26,21.39l-1.31,3.84-12.9-.49-4.22-.16c-.19.24-.38.48-.56.73C529.25,270.07,529.25,270.41,529.25,270.74Z" transform="translate(-448.23 -17.45)"/><path class="cls-23" d="M483.66,407.46l1.94.67c8.08,2.69,16.08,5.63,24,8.68.64.24,1.29.44,1.94.66,7.92,2.64,15.75,5.55,23.56,8.5,2.39.9,4.85,1.63,7.27,2.47,1.77.61,3.52,1.28,5.28,1.93a1.72,1.72,0,0,0,.28-1.9c-1.07-1.93-2.14-3.87-3.34-5.72-5-7.71-10-15.38-15-23.09-6.37-9.85-12.81-19.65-19-29.6-2.88-4.61-5.94-9.11-8.84-13.71Q492.5,341.68,483,327.19c-1.77-2.7-3.3-5.56-4.93-8.34L476,315.76H475a28.52,28.52,0,0,1-.81,3.46q-3.11,8.64-6.31,17.24c-3,8-6,15.91-8.94,23.87-1.59,4.31-3.13,8.63-4.69,12.95q-2,5.52-4,11.05l3.22,2.33,5.31,3.92v7.86l2.71,1Z" transform="translate(-448.23 -17.45)"/><path class="cls-14" d="M474.08,312.26c.19.73-.43,1.21-1.12,1.47l2.08,2h1c.35-.32.68-.65,1-1,4-3.74,8.37-6.95,12.35-10.68,2.73-2.55,5.79-4.74,8.69-7.11.79-.64,1.58-1.29,2.32-2,1.59-1.54,3.29-2.94,5-4.32,3.32-2.64,6.42-5.58,9.7-8.29,4.32-3.57,8.49-7.34,13.08-10.6l1-1h0c0-.33,0-.67,0-1a9.64,9.64,0,0,1-2.56-.85l-5.48-.21-5.72,7-5.63,7.1-7.92-.49-7.92-.49-3.67,5.8-3.76,5.8h-6.45c-7.51,0-7.1-.49-7.84,9q-.15,1.88-.27,3.3c.08.24.17.47.26.71C473,308.34,473.57,310.29,474.08,312.26Z" transform="translate(-448.23 -17.45)"/><path class="cls-24" d="M470.16,312h0l.73.71C470.64,312.44,470.4,312.2,470.16,312Z" transform="translate(-448.23 -17.45)"/><path class="cls-24" d="M459,360.33c3-8,6-15.91,8.94-23.87q3.19-8.61,6.31-17.24a28.52,28.52,0,0,0,.81-3.46h0l-2.08-2h0l-.18-.17.18.17-.18-.17-.88-.83-1-.05-.73-.71a8.16,8.16,0,0,1-2.75.24c-2,0-3.83.41-4.08.81s-.9,8.25-1.39,17.4-1.14,16.82-1.55,17.3-3.1.66-6,.58l-5.14-.33L448.8,356c-.33,4.41-.57,12.25-.57,17.39v9.39l2.08,1.51q2-5.52,4-11.05C455.85,369,457.39,364.64,459,360.33Z" transform="translate(-448.23 -17.45)"/><path class="cls-25" d="M472.77,313.55l-.88-.83" transform="translate(-448.23 -17.45)"/><path class="cls-25" d="M473,313.72l-.18-.17" transform="translate(-448.23 -17.45)"/><path class="cls-25" d="M470.16,312l.73.71" transform="translate(-448.23 -17.45)"/><path class="cls-26" d="M814.12,369.17c.83-2.84.71-5.74.77-8.63a11.34,11.34,0,0,1,.24-2.54,32.43,32.43,0,0,0,.8-7.61,16.22,16.22,0,0,1,.41-3.54,25,25,0,0,0,.57-6.09,30,30,0,0,1,.71-7.61,16.9,16.9,0,0,0,.31-3.56c.14-5.11,1.42-10.12,1.22-15.25a1.51,1.51,0,0,1,.08-.51,28.37,28.37,0,0,0,.78-8.11,10.84,10.84,0,0,1,.17-2.55,36.21,36.21,0,0,0,.88-8.62,9.74,9.74,0,0,1,.3-2.53,29.76,29.76,0,0,0,.7-7.1,24.91,24.91,0,0,1,.43-4.57,33.69,33.69,0,0,0,.59-6.09,30.73,30.73,0,0,1,.42-5.08,33.69,33.69,0,0,0,.59-6.09,22.48,22.48,0,0,1,.32-4.58,49.25,49.25,0,0,0,.75-8.12c.16-2.71.62-5.4,1-8.1a4.47,4.47,0,0,0,0-.52c.11-5.1,1.41-10.12,1.2-15.25a5.23,5.23,0,0,1,.28-1.5c.67-2.34.44-4.74.63-7.11.21-2.54.64-5.06.95-7.6a11.14,11.14,0,0,0,0-1.53,30,30,0,0,1,.71-7.61,24.93,24.93,0,0,0,.31-4.07h-1c-2.06,1.19-4.11,2.4-6.18,3.59-5.74,3.32-11.47,6.66-17.23,9.95-5.46,3.13-10.67,6.7-16.36,9.43a22.16,22.16,0,0,0-3.06,1.84c-4,2.84-8.47,5.05-12.74,7.51-5.45,3.15-10.67,6.7-16.34,9.45-.15.08-.28.2-.43.29-3.93,2.37-7.79,4.88-11.82,7.07-5.54,3-10.74,6.56-16.25,9.61-5.8,3.23-11.4,6.78-17.32,9.81v1c1,1.16,1.93,2.38,3,3.48,2.25,2.32,4.57,4.58,6.85,6.88a38.94,38.94,0,0,1,5.06,5.74,23.49,23.49,0,0,0,3.08,3.4l17,17a37.12,37.12,0,0,1,4.36,5,29.79,29.79,0,0,0,3.42,3.78q8.84,8.88,17.71,17.72a37.09,37.09,0,0,1,4.38,5,30.49,30.49,0,0,0,3.4,3.8q9.56,9.6,19.16,19.16a42.1,42.1,0,0,1,4,4.61,56.56,56.56,0,0,0,4.1,4.54c1.62,1.74,3.54,3.22,4.78,5.3a4.46,4.46,0,0,0,3.06,1h0c0-.33,0-.66,0-1A3.32,3.32,0,0,1,814.12,369.17Z" transform="translate(-448.23 -17.45)"/><path class="cls-8" d="M682.81,307.59a18,18,0,0,1,1.21-2.76c1.48-2.26,3.06-4.45,4.61-6.67.39-.55.82-1.07,1.21-1.62q5.48-7.92,10.93-15.85c2.6-3.75,5.22-7.48,7.81-11.23a9,9,0,0,1,2.89-2.79v-1a5.57,5.57,0,0,1-2.12-2.79c-2.38-6.18-4.81-12.35-7.19-18.53-2.44-6.34-4.83-12.7-7.28-19.05-2.68-7-5.42-13.93-8.1-20.91-2.31-6-4.56-12.08-6.86-18.11q-3.2-8.34-6.47-16.63c-.62-1.58-1.39-3.09-2.11-4.62,0-.06-.32-.06-.43,0a.7.7,0,0,0-.26.39c-.07.33-.09.68-.13,1h0v7.16a2.1,2.1,0,0,1,.22.33c.94,1.46.76,3.15.8,4.79a3.39,3.39,0,0,1-.23-.34,3.39,3.39,0,0,0,.23.34v6.14a2.44,2.44,0,0,1,.23.33c.94,1.46.76,3.14.79,4.78a3.15,3.15,0,0,1-.22-.33,2.1,2.1,0,0,0,.22.33c0,4.41-.27,8.84.86,13.2a11.88,11.88,0,0,1,.15,3.05,39.62,39.62,0,0,0,.75,8.61,34.07,34.07,0,0,1,.3,5.08,47,47,0,0,0,.48,5.57,32.64,32.64,0,0,1,.53,6.08,31.33,31.33,0,0,0,.61,7.09,23.16,23.16,0,0,1,.4,4.56,34.59,34.59,0,0,0,.72,8.11,15.45,15.45,0,0,1,.3,3.54,35.85,35.85,0,0,0,.79,9.12,10.19,10.19,0,0,1,.23,2.53,44.87,44.87,0,0,0,.83,10.14,24.75,24.75,0,0,1,.22,4.57,32.85,32.85,0,0,0,.36,5.08,37.31,37.31,0,0,1,.68,7.6,20.35,20.35,0,0,0,.32,4.56,36.86,36.86,0,0,1,.67,9.13h0Z" transform="translate(-448.23 -17.45)"/><path class="cls-18" d="M1381,281a7.13,7.13,0,0,0,4.39,1c8,0,16,0,24,0a18.25,18.25,0,0,0,3.9-.4,208.73,208.73,0,0,0-19-16.48,56.4,56.4,0,0,0-5.79,6.85C1385.54,274.62,1383.34,277.87,1381,281Z" transform="translate(-448.23 -17.45)"/><path class="cls-8" d="M1200.93,230.7c-1.2,6.7-2.34,13.41-3.6,20.1-1.67,8.86-3.52,17.69-5.16,26.56-2.28,12.38-4.9,24.7-7.17,37.08-1,5.19-2,10.35-2.93,15.55-1.65,9.39-3.58,18.72-5.42,28.07-1,5.18-2.09,10.35-3.09,15.53-.23,1.16-.28,2.36-.41,3.54h0c2,0,4.07,0,6.11,0a14.06,14.06,0,0,0,3-.15,45.16,45.16,0,0,1,10.63-.9,7.64,7.64,0,0,0,2-.16c3.32-.88,6.72-.82,10.12-.86a10.69,10.69,0,0,0,2.53-.22,37.19,37.19,0,0,1,9.11-.8,16.08,16.08,0,0,0,3.54-.29,30.82,30.82,0,0,1,7.59-.71,32.62,32.62,0,0,0,6.07-.54,37,37,0,0,1,5.57-.45,41.28,41.28,0,0,0,7.09-.65,28.39,28.39,0,0,1,5.06-.38,37.53,37.53,0,0,0,7.09-.62,23.84,23.84,0,0,1,4.55-.4c2.72-.06,5.44,0,8.15,0l8.21,0h0a5.54,5.54,0,0,0-3.23-1l-2.94-.05h0a3.76,3.76,0,0,1-2.71-2.8c-.85-2.94-1.67-5.89-2.49-8.85-1.22-4.43-2.42-8.87-3.66-13.29q-4.27-15.25-8.58-30.48-2.2-7.87-4.4-15.74-2.62-9.35-5.24-18.69c-1.1-3.94-2.16-7.88-3.27-11.81q-4.29-15.26-8.59-30.48-2.2-7.87-4.4-15.74-1.47-5.23-2.93-10.47a54.43,54.43,0,0,1-10.67-5.44c-4.12-2.66-7-4.51-9.36-5.84-2.06,10.12-3.75,20.31-6.07,30.38C1201,230,1201,230.37,1200.93,230.7Z" transform="translate(-448.23 -17.45)"/><path class="cls-7" d="M1286.81,370a29.19,29.19,0,0,1,4.58.39,34.12,34.12,0,0,0,6.61.57c2.73,0,5.46,0,8.19,0a35.81,35.81,0,0,1,6.61.54,32,32,0,0,0,5.09.41c3.06.08,6.14.07,9.21.07a36.92,36.92,0,0,1,7.63.63,24.9,24.9,0,0,0,4.58.33c2.73.07,5.46.06,8.19.06a37.61,37.61,0,0,1,7.63.62,24.9,24.9,0,0,0,4.58.34c2.73.06,5.46,0,8.19.06a41.53,41.53,0,0,1,9.16.7,19.67,19.67,0,0,0,4.07.27c2.9.05,5.8.05,8.7.06a36.21,36.21,0,0,1,7.12.58,25,25,0,0,0,4.58.38c3.41.06,6.82.06,10.23.07a33.52,33.52,0,0,1,6.62.57,27.81,27.81,0,0,0,4.57.38c2.39.08,4.78.06,7.17.08h7.16l3.07,0c-2.47-3.87-4.91-7.77-7.41-11.62-4.62-7.14-9.45-14.14-14-21.36-6.34-10.08-13-20-19.55-29.91-3-4.55-6.2-9-9-13.63-3.07-5.12-6.52-10-9.75-15a10.84,10.84,0,0,0-1-1.16,1.83,1.83,0,0,0-2.33-.21q-4.86,3.72-9.68,7.49c-1.74,1.35-3.54,2.66-5.16,4.16-3.12,2.89-6.56,5.39-9.88,8-4.11,3.29-8.19,6.64-12.3,9.93-2.52,2-4.95,4.15-7.45,6.19-5.78,4.74-11.72,9.28-17.59,13.92a69.2,69.2,0,0,0-5.92,4.83c-2.56,2.54-5.5,4.56-8.25,6.84-5.76,4.76-11.76,9.23-17.57,13.95-2.24,1.82-4.37,3.77-6.65,5.55a30,30,0,0,0-3.42,3.76h0l2.94.05a5.54,5.54,0,0,1,3.23,1h0C1282,370,1284.42,370,1286.81,370Z" transform="translate(-448.23 -17.45)"/><polygon class="cls-27" points="509.97 714.68 509.97 714.68 509.97 714.68 509.97 714.68"/><path class="cls-27" d="M958.18,896.85a24.71,24.71,0,0,0,4.56-.41,31.15,31.15,0,0,1,6.59-.6c2.56,0,5.11,0,7.66,0a29,29,0,0,0,6.09-.55,25.71,25.71,0,0,1,4.56-.44c2.38-.08,4.76,0,7.15,0a30.32,30.32,0,0,0,7.1-.63,19.57,19.57,0,0,1,4.05-.37c2.55-.05,5.11,0,7.66,0a39.63,39.63,0,0,0,7.13-.41,5.41,5.41,0,0,1,1.94.41h2.06v-2a5,5,0,0,1-1.93-2.31c-.81-2.06-1.62-4.11-2.45-6.16-3.85-9.44-7.66-18.9-11.56-28.33-3-7.22-6.12-14.38-9.1-21.61-2.28-5.5-4.37-11.07-6.64-16.57-3.1-7.54-6.31-15-9.42-22.58-2.27-5.5-4.41-11.06-6.68-16.56-3.23-7.86-6.55-15.68-9.78-23.53-2.27-5.51-4.47-11-6.64-16.57-.56-1.42-.88-2.93-1.3-4.4h0c0-.32,0-.64,0-1h0l-1,0v-.06h0l0,.07c-1.37,2.74-2.71,5.5-4.13,8.21-1.11,2.1-2.32,4.15-3.47,6.23-.58,1-1.22,2.06-1.7,3.14-2.46,5.61-5.56,10.9-8.24,16.4-.39.8-.79,1.6-1.19,2.41.42,0,.87,0,1.36,0h4.08l-.49,15.52c-.49,13.71-.4,15.67.74,16.08,1,.33,12-2.53,19.59-5.22.66-.25,1.07,6.69,1.56,23.92.32,13.39.89,25.15,1.3,26.21.66,1.79,1.14,1.88,7.68,1.88h6.94l-.49,10.77c-.74,14.7-1.47,16-13.07,22.62-6.86,3.92-9.88,5.23-15.1,6.21-3.68.65-6.94,1.38-7.35,1.71s-.73,2.78-.73,5.63v3.16a44.8,44.8,0,0,1,5.56-.23C953.41,896.87,955.8,896.91,958.18,896.85Z" transform="translate(-448.23 -17.45)"/><path class="cls-28" d="M1103.78,873.76c-11,2.3-21.86,5.33-32.8,8-12.93,3.11-25.84,6.29-38.76,9.42-2.49.6-5,1.09-7.49,1.63v1a10,10,0,0,1,2.92,2.81,39.43,39.43,0,0,0,3.3,3.89c3.61,3.62,6.44,7.93,10.21,11.41a3.55,3.55,0,0,1,.62.81,25.57,25.57,0,0,0,4,4.66,21.75,21.75,0,0,1,2.77,3,43.05,43.05,0,0,0,5.36,6.15,14.11,14.11,0,0,1,2,2.3c1.38,2.2,3.31,3.89,5,5.78s3.45,4.22,5.28,6.22a43.62,43.62,0,0,1,5.34,6.18,9.31,9.31,0,0,0,1.34,1.54,48.08,48.08,0,0,1,6.06,6.91c.11.17.23.33.35.49l4.57-11,4-1.3c3.76-1.23,4.08-1.64,6.37-6.78,1.8-4.08,3.84-6.69,8.41-11.1l6-5.72.57-28.9.38-19-.34.1C1107.4,872.8,1105.61,873.38,1103.78,873.76Z" transform="translate(-448.23 -17.45)"/><path class="cls-29" d="M901.8,960.87c2.5-1.45,5-2.89,7.55-4.29,4-2.23,8.09-4.38,12.1-6.64,5.48-3.11,10.92-6.3,16.39-9.42a11.2,11.2,0,0,1,1.92-.68l1-2.05c-5.65-3.49-11.77-6.1-17.53-9.36q-2.38-1.33-4.82-2.59c-1.45,2.56-1.8,4.27-2.36,7.62l-1,6.21L904.4,951.51c-5.88,6.53-11.6,12.81-12.74,14.12a6.7,6.7,0,0,0-1.45,2l1.43-.8C895,964.84,898.4,962.83,901.8,960.87Z" transform="translate(-448.23 -17.45)"/><path class="cls-30" d="M940.78,937.79c4.17-1.1,7.81-3.38,11.56-5.38,5.26-2.8,10.41-5.82,15.62-8.7,4.48-2.47,9-4.84,13.48-7.31,5.22-2.88,10.38-5.87,15.61-8.74,5.07-2.79,10.21-5.48,15.32-8.21a11.67,11.67,0,0,0,1.34-.74,70.76,70.76,0,0,1,9-4.91h0a5.41,5.41,0,0,0-1.94-.41,39.63,39.63,0,0,1-7.13.41c-2.55,0-5.11,0-7.66,0a19.57,19.57,0,0,0-4.05.37,30.32,30.32,0,0,1-7.1.63c-2.39,0-4.77-.05-7.15,0a25.71,25.71,0,0,0-4.56.44,29,29,0,0,1-6.09.55c-2.55,0-5.1,0-7.66,0a31.15,31.15,0,0,0-6.59.6,24.71,24.71,0,0,1-4.56.41c-2.38.06-4.77,0-7.15,0a44.8,44.8,0,0,0-5.56.23v2l-7.11,4.41c-6.53,4-7.59,5.06-14.21,14a96.11,96.11,0,0,0-5.72,8.3q2.43,1.26,4.82,2.59C929,931.69,935.13,934.3,940.78,937.79Z" transform="translate(-448.23 -17.45)"/><path class="cls-31" d="M1323.56,724.39a50.72,50.72,0,0,1-5.76-6.49,19.35,19.35,0,0,0-2.41-2.64c-2.27-2.31-4.56-4.6-6.84-6.9s-4.19-4.45-6.15-6.82a56.64,56.64,0,0,0-9.45-9.31q0,10.72,0,21.44a34,34,0,0,0,.55,6.59,31.51,31.51,0,0,1,.45,5.58c.06,5.27,0,10.55,0,15.82a24.44,24.44,0,0,0,.37,5.07,36.12,36.12,0,0,1,.64,7.61c0,4.93,0,9.87,0,14.8,0,1,0,2.06.08,3.09l1.72-.43c6.78-1.64,7.27-2,9.88-5.55,2.69-3.76,2.69-3.84,2.37-11.52-.17-4.32,0-8.24.49-9s2.69-1.31,6.69-1.47l5.8-.32,1.55-3.6a34.66,34.66,0,0,0,2.2-8.73,18.51,18.51,0,0,1,.87-4.14C1325.61,726.47,1324.57,725.44,1323.56,724.39Z" transform="translate(-448.23 -17.45)"/><path class="cls-32" d="M1430.12,448.64c.35-2,.7-4,1-6.05.47-3.37.72-6.77,1.36-10.11,1.56-8.2,2.38-16.5,3.8-24.72.32-1.85.71-3.68.94-5.54.78-6.25,1.55-12.5,2.85-18.66.6-2.86,0-5.05-2.77-6.38h-7.16c1.12.95,2.52.9,3.86,1.12.14,0,.26.17.39.26-.16.22-.28.57-.48.62q-6.72,1.55-13.45,3c-1.82.4-3.7.59-5.5,1.07-6.1,1.6-12.3,2.69-18.46,4-3.49.75-7,1.39-10.48,2.26-6.44,1.6-13,2.46-19.45,4.21-2.62.71-5.32,1.15-8,1.72l-20,4.27c-1.66.35-3.33.64-5,1-1.17.23-2.35.4-3.5.7-6.1,1.6-12.29,2.77-18.45,4.07-3.83.8-7.68,1.52-11.48,2.46-6.44,1.59-13,2.48-19.46,4.18-3.11.83-6.32,1.3-9.5,1.87a6.83,6.83,0,0,0-2.85,1h0a10.32,10.32,0,0,0,2.82,2.92c1.35,1,2.6,2.19,3.91,3.28l3.91,3.28a10.27,10.27,0,0,1,1.21.94c3.35,3.67,7.55,6.38,11,9.86.73.72,1.56,1.33,2.34,2l3.91,3.28,3.9,3.29c.79.66,1.62,1.26,2.35,2a39.56,39.56,0,0,0,5.44,4.64,28.41,28.41,0,0,1,2.66,2.39c1.29,1.11,2.6,2.2,3.9,3.29a10.32,10.32,0,0,1,1.22.93c3.25,3.52,7.24,6.21,10.69,9.5,1,.94,2.08,1.76,3.11,2.64l3.51,3,3.88,3.31c.91.77,1.87,1.49,2.73,2.31a37.1,37.1,0,0,0,5.06,4.3,29.77,29.77,0,0,1,2.67,2.37c1.29,1.12,2.59,2.21,3.89,3.31a11.45,11.45,0,0,1,1.22.92c3.28,3.5,7.21,6.24,10.7,9.5,1,.93,2.07,1.77,3.11,2.65l3.51,3c1.43,1.2,2.87,2.4,4.29,3.61.91.78,1.79,1.58,2.7,2.35l4.27,3.65c.9.77,1.85,1.51,2.71,2.33a34,34,0,0,0,4.66,4,16.91,16.91,0,0,1,2.33,2l1.17,1.14a61.77,61.77,0,0,0,9.51-8.36c6.37-6.86,6.53-7.1,6.53-11.18,0-4.58,1.14-6.29,5.71-8.66,2-1.06,2.7-2.2,3.84-6.12,1.2-4.4,1.86-5.28,6.71-9.37.23-1.95.47-3.9.83-5.83C1427.89,465.17,1428.71,456.86,1430.12,448.64Z" transform="translate(-448.23 -17.45)"/><polygon class="cls-33" points="844.69 673.8 844.69 673.8 844.69 673.8 844.69 673.8"/><path class="cls-33" d="M1369.4,598.61c-2,2.52-4.26,4.85-6.22,7.44-2.24,3-4.94,5.61-7.27,8.54-1.9,2.4-3.93,4.69-5.88,7-3.14,3.79-6.22,7.64-9.47,11.35-2.57,2.94-4.91,6.09-7.38,9.12-1.71,2.11-3.63,4-5.27,6.23-2.22,3-4.84,5.7-7.25,8.56s-5,6-7.44,9.06c-.44.53-.81,1.1-1.27,1.6-3.44,3.77-6.61,7.77-9.8,11.74-2.55,3.19-5.34,6.18-8,9.27-.44.51-.8,1.09-1.2,1.64,0,.35,0,.69,0,1h0l7-1.13c6-.94,12.08-2,18.14-2.77,6.75-.87,13.44-2.07,20.17-3,1.91-.27,3.83-.51,5.74-.74a28.16,28.16,0,0,1,1.53-10.57c1.72-5.71,1.8-9.47.25-13.47-.49-1.22-.17-1.31,2.69-.9s11.19-.9,13.23-2.2c.41-.25,1-5.15,1.22-10.94.49-8.58.9-11.43,2.54-14.94a58,58,0,0,0,2.93-12.17c1.31-10.29,2.62-13.55,7.19-18.13l3.76-3.92.1-9.84c-.88,1-1.76,2-2.63,3C1374.31,592.53,1371.85,595.57,1369.4,598.61Z" transform="translate(-448.23 -17.45)"/><path class="cls-34" d="M1389.69,519.75a34,34,0,0,1-4.66-4c-.86-.82-1.81-1.56-2.71-2.33l-4.27-3.65c-.91-.77-1.79-1.57-2.7-2.35-1.42-1.21-2.86-2.41-4.29-3.61l-3.51-3c-1-.88-2.12-1.72-3.11-2.65-3.49-3.26-7.42-6-10.7-9.5a11.45,11.45,0,0,0-1.22-.92c-1.3-1.1-2.6-2.19-3.89-3.31a29.77,29.77,0,0,0-2.67-2.37,37.1,37.1,0,0,1-5.06-4.3c-.86-.82-1.82-1.54-2.73-2.31l-3.88-3.31-3.51-3c-1-.88-2.13-1.7-3.11-2.64-3.45-3.29-7.44-6-10.69-9.5a10.32,10.32,0,0,0-1.22-.93c-1.3-1.09-2.61-2.18-3.9-3.29a28.41,28.41,0,0,0-2.66-2.39,39.56,39.56,0,0,1-5.44-4.64c-.73-.71-1.56-1.31-2.35-2l-3.9-3.29-3.91-3.28c-.78-.66-1.61-1.27-2.34-2-3.5-3.48-7.7-6.19-11-9.86a10.27,10.27,0,0,0-1.21-.94l-3.91-3.28c-1.31-1.09-2.56-2.25-3.91-3.28a10.32,10.32,0,0,1-2.82-2.92h0c-.34,0-.68,0-1,0V415h0c0,.33,0,.66,0,1h0a37,37,0,0,0,.68,8.12,22.58,22.58,0,0,1,.34,5.08c0,7.49,0,15,0,22.48a34.16,34.16,0,0,0,.54,6.61,30.53,30.53,0,0,1,.46,5.58c.05,7.32,0,14.65,0,22a37.51,37.51,0,0,0,.62,7.62,28.11,28.11,0,0,1,.39,5.59c0,7.32,0,14.65,0,22a36.19,36.19,0,0,0,.6,7.11,28.9,28.9,0,0,1,.41,5.58c0,6.82,0,13.63,0,20.45h0c0,.35,0,.7.08,1.05h0a42.68,42.68,0,0,1,11.15-1.12,6,6,0,0,0,1.53-.07c4-.93,8.11-.92,12.2-1a13.8,13.8,0,0,0,2-.27,13,13,0,0,1,2-.39c5.46,0,10.82-1.2,16.27-1.28a39.52,39.52,0,0,0,6.6-.61,36,36,0,0,1,5.6-.4,39.52,39.52,0,0,0,6.6-.61,30.72,30.72,0,0,1,5.08-.41,26.52,26.52,0,0,0,6.09-.63,4.39,4.39,0,0,1,1-.18c5.81.11,11.51-1.17,17.3-1.25a25.42,25.42,0,0,0,6.09-.58,3.92,3.92,0,0,1,1-.19,65,65,0,0,0,7.76-.56c0-8.73-.37-11.1-1.12-13s-1.14-3.76-.9-4.17,2-.73,3.68-.73c3.16,0,7.3-1.78,11.72-4.87l-1.17-1.14A16.91,16.91,0,0,0,1389.69,519.75Z" transform="translate(-448.23 -17.45)"/><path class="cls-35" d="M925.43,394.6l0-.2-.17.19Z" transform="translate(-448.23 -17.45)"/><polygon class="cls-35" points="477.2 377.15 477.2 377.15 477.2 377.15 477.2 377.15"/><path class="cls-35" d="M1048.28,295.31c-2,2.32-4.6,4-7,6s-4.82,3.79-7.22,5.69q-7.2,5.73-14.37,11.47c-4.25,3.42-8.43,6.91-12.69,10.31s-8.58,6.71-12.84,10.11-8.43,6.9-12.69,10.3-8.58,6.71-12.83,10.12-8.45,6.89-12.7,10.29-8.57,6.73-12.84,10.12c-3.86,3.07-7.77,6.09-11.53,9.28a60.43,60.43,0,0,1-6.18,4.53h0l0,.9c6.79,2.28,13.66,4.3,20.29,7,.31.13.64.23,1,.34l31.42,10.84c8.21,2.84,16.47,5.57,24.61,8.6,6.23,2.32,12.55,4.38,18.83,6.56,7.24,2.51,14.53,4.92,21.7,7.62s14.22,4.78,21.24,7.42c6.38,2.42,12.87,4.48,19.31,6.72,1.45.5,2.93.89,4.4,1.33a1.87,1.87,0,0,0,.8.39l-.8-.39,2.06-.06h0c-1.06-3.58-2.19-7.15-3.16-10.77-1.24-4.6-2.3-9.25-3.52-13.86-2.44-9.21-5-18.4-7.4-27.62-2.65-10-5.16-20.11-7.81-30.16-2.47-9.38-5.07-18.72-7.54-28.11-2.81-10.7-5.54-21.42-8.32-32.13-.81-3.13-1.67-6.25-2.52-9.37a2.93,2.93,0,0,1,.36-2.44l-1-1Z" transform="translate(-448.23 -17.45)"/><path class="cls-36" d="M1050,298.78c.85,3.12,1.71,6.24,2.52,9.37,2.78,10.71,5.51,21.43,8.32,32.13,2.47,9.39,5.07,18.73,7.54,28.11,2.65,10.05,5.16,20.12,7.81,30.16,2.42,9.22,5,18.41,7.4,27.62,1.22,4.61,2.28,9.26,3.52,13.86,1,3.62,2.1,7.19,3.16,10.77h0l0,0h1c.8-.63,1.65-1.22,2.39-1.91,2.72-2.58,5.25-5.34,8.37-7.49a29.2,29.2,0,0,0,3.7-3.52,38.46,38.46,0,0,1,5.76-5,19.27,19.27,0,0,0,2.67-2.37,66.49,66.49,0,0,1,6.86-6.11,50.08,50.08,0,0,0,5.2-4.91,46.92,46.92,0,0,1,5.75-5.05,37,37,0,0,0,4.13-3.8,41.44,41.44,0,0,1,6.13-5.4,19.2,19.2,0,0,0,2.66-2.38,63.29,63.29,0,0,1,6.87-6.1,46,46,0,0,0,4.83-4.55,53.42,53.42,0,0,1,6.11-5.42,45.16,45.16,0,0,0,4.5-4.16c1.61-1.51,3-3.26,4.94-4.42h0v-.95c-2.16-1.36-4.34-2.67-6.46-4.08Q1111.35,337,1057,300.79c-1.84-1.23-3.76-2.32-5.64-3.47a7.68,7.68,0,0,1-1.07-1h0A2.93,2.93,0,0,0,1050,298.78Z" transform="translate(-448.23 -17.45)"/><path class="cls-37" d="M1173.18,378.25h0c3.53,1.25,7.1,2.39,10.58,3.76,13.63,5.34,27.18,10.88,40.86,16.1,8,3,15.84,6.22,23.76,9.34,4.75,1.87,9.54,3.64,14.3,5.51,1.58.62,3.11,1.37,4.66,2.07h0V415a26.93,26.93,0,0,0,1.06-8,24.48,24.48,0,0,1,.48-5.05,30.23,30.23,0,0,0,.51-6.07,60,60,0,0,1,.6-7.08q.78-7.07,1.42-14.15c.14-1.52,0-3.05,0-4.58-2.71,0-5.43,0-8.15,0a23.84,23.84,0,0,0-4.55.4,37.53,37.53,0,0,1-7.09.62,28.39,28.39,0,0,0-5.06.38,41.28,41.28,0,0,1-7.09.65,37,37,0,0,0-5.57.45,32.62,32.62,0,0,1-6.07.54,30.82,30.82,0,0,0-7.59.71,16.08,16.08,0,0,1-3.54.29,37.19,37.19,0,0,0-9.11.8,10.69,10.69,0,0,1-2.53.22c-3.4,0-6.8,0-10.12.86a7.64,7.64,0,0,1-2,.16,45.16,45.16,0,0,0-10.63.9,14.06,14.06,0,0,1-3,.15c-2,0-4.08,0-6.11,0h0l-1,.11h0v.95Z" transform="translate(-448.23 -17.45)"/><path class="cls-38" d="M1050.32,296.34l1.07,1" transform="translate(-448.23 -17.45)"/><path class="cls-39" d="M931.62,389c3.76-3.19,7.67-6.21,11.53-9.28,4.27-3.39,8.58-6.72,12.84-10.12s8.44-6.89,12.7-10.29,8.58-6.72,12.83-10.12,8.44-6.9,12.69-10.3,8.59-6.71,12.84-10.11,8.44-6.89,12.69-10.31q7.15-5.76,14.37-11.47c2.4-1.9,4.86-3.73,7.22-5.69s4.92-3.65,7-6a55.4,55.4,0,0,0-6-1.09c-3.39-.34-6.76-.82-10.14-1.25-5.06-.64-10.07-1.72-15.2-1.85a9.89,9.89,0,0,1-1.52-.2c-4.52-.82-9-1.84-13.65-1.83a8.89,8.89,0,0,1-1.53-.19c-3.87-.6-7.74-1.19-11.6-1.8a35.58,35.58,0,0,0-5.55-.88c-4,0-7.76-1-11.66-1.44-1.35-.15-2.67-.56-4-.67-3.57-.28-7.09-1-10.65-1.33-5.24-.56-10.4-1.76-15.7-1.9a15.49,15.49,0,0,1-2-.34c-6.38-1.05-12.75-2.24-19.21-2.7-.68,0-1.35-.21-2-.3-4-.57-8.1-1.09-12.14-1.73-2.67-.43-5.43-.57-7.86-2h-1l-2,2.06h0a2.86,2.86,0,0,1,1.91,1.57,29.23,29.23,0,0,1,1.12,3.39q2.75,10.9,5.43,21.83c2.35,9.6,4.65,19.21,7,28.81q3.72,15.4,7.45,30.8,3.3,13.67,6.62,27.31c.33,1.32.81,2.6,1.22,3.89h0A60.43,60.43,0,0,0,931.62,389Z" transform="translate(-448.23 -17.45)"/><path class="cls-40" d="M994,201.19h0" transform="translate(-448.23 -17.45)"/><path class="cls-40" d="M995,200.17l-1,1" transform="translate(-448.23 -17.45)"/><path class="cls-40" d="M997.1,199.13h0" transform="translate(-448.23 -17.45)"/><path class="cls-40" d="M998.11,198.12l-1,1" transform="translate(-448.23 -17.45)"/><path class="cls-40" d="M998.11,198.12l1-1" transform="translate(-448.23 -17.45)"/><path class="cls-40" d="M1009.37,189.93l1-1" transform="translate(-448.23 -17.45)"/><path class="cls-40" d="M994,201.19l-1,1" transform="translate(-448.23 -17.45)"/><path class="cls-40" d="M1006.3,192l1-1" transform="translate(-448.23 -17.45)"/><path class="cls-40" d="M1005.28,193l1-1" transform="translate(-448.23 -17.45)"/><path class="cls-40" d="M1003.23,194l-1,1" transform="translate(-448.23 -17.45)"/><path class="cls-40" d="M1002.2,195.05l-1,1" transform="translate(-448.23 -17.45)"/><path class="cls-40" d="M832.27,198.12l-1-1" transform="translate(-448.23 -17.45)"/><path class="cls-32" d="M925.24,394.59l.17-.19,0-.9h0c-.41-1.29-.89-2.57-1.22-3.89Q920.88,376,917.6,362.3q-3.74-15.41-7.45-30.8c-2.32-9.6-4.62-19.21-7-28.81q-2.67-10.92-5.43-21.83a29.23,29.23,0,0,0-1.12-3.39,2.86,2.86,0,0,0-1.91-1.57h0a20.1,20.1,0,0,1-3.47,5c-2.51,2.78-4.89,5.66-7.28,8.55s-4.88,6.11-7.41,9.1c-3.08,3.63-6.16,7.26-9.16,11-2,2.5-4.16,4.94-6.21,7.44-2.47,3-5.16,5.89-7.62,8.93-3.11,3.83-6.29,7.6-9.45,11.39-2.06,2.49-4.16,4.94-6.23,7.43-2.5,3-4.88,6.11-7.41,9.1-3.09,3.63-6.24,7.2-9.13,11-.51.67-1.12,1.28-1.69,1.91L814.87,372c0,.34,0,.67,0,1h0l2.07,1h0c2.83.55,5.66,1.12,8.49,1.64,8.52,1.57,17,3.1,25.56,4.68,3.17.59,6.32,1.29,9.49,1.88,7.68,1.42,15.38,2.76,23,4.2,12,2.24,24,4.55,36,6.81,1,.19,2,.23,3,.46a11.49,11.49,0,0,1,1.85.8h0A7.52,7.52,0,0,1,925.24,394.59Z" transform="translate(-448.23 -17.45)"/><path class="cls-41" d="M680.79,307.61a25.2,25.2,0,0,0-2.89-1c-4.65-1-9.26-2.19-13.85-3.45-.65-.18-1.31-.34-2-.49-2.81-.64-5.65-1.19-8.45-1.91-8.89-2.28-17.86-4.24-26.72-6.61-3-.79-6-1.23-8.95-2-9.35-2.54-18.93-4.18-28.2-7-1.3-.4-2.64-.65-4-.95-2.16-.47-4.34-.84-6.47-1.41-9.2-2.47-18.54-4.35-27.7-6.92-1-.27-2-.5-3-.73-4.14-1-8.28-1.93-12.42-2.87-2.32-.52-4.65-1-7-1.5h0l-1,1a4.18,4.18,0,0,1,2.9,1.9q5.88,9.58,11.73,19.18c3.36,5.53,6.59,11.14,10.11,16.58,2.69,4.14,5.08,8.47,7.64,12.69,3.19,5.24,6.43,10.45,9.62,15.68,2.48,4.07,4.92,8.17,7.39,12.25,4.42,7.28,8.61,14.7,13.27,21.83,2.24,3.42,4.23,7,6.29,10.53a11.2,11.2,0,0,1,.68,1.92h0l2,1h0c1.27-1.12,2.6-2.18,3.81-3.36,3-3,6-6,9.07-8.94a52.81,52.81,0,0,1,6.44-5.78,29.84,29.84,0,0,0,3.36-3.11q5.26-5.17,10.5-10.39A45.27,45.27,0,0,1,638.4,349a30.7,30.7,0,0,0,3.39-3.07c3.51-3.45,7-6.93,10.51-10.39a68,68,0,0,1,8.28-7.53,23.58,23.58,0,0,0,3-2.79c3.63-3.57,7.22-7.19,10.88-10.74,2.07-2,4.23-3.91,6.36-5.87h0C680.78,308.3,680.78,308,680.79,307.61Z" transform="translate(-448.23 -17.45)"/><path class="cls-42" d="M814.85,373h0a4.46,4.46,0,0,1-3.06-1c-2.23-.39-4.13-1.57-6.11-2.56q-29.52-14.73-59-29.5-29.29-14.62-58.58-29.28c-1.82-.91-3.78-1.62-5.25-3.12l-1,0h0l-1,.05h0c0,.34,0,.69,0,1a5.15,5.15,0,0,1,1,2.86,26,26,0,0,1-.4,7.09,24.19,24.19,0,0,0-.56,6.06c0,2.89,0,5.77,0,8.66a18.73,18.73,0,0,1-.31,4,34.47,34.47,0,0,0-.68,8.1c0,2.71,0,5.43,0,8.14a32.84,32.84,0,0,1-.49,5.05,30.68,30.68,0,0,0-.49,5.57c0,2,0,4.07,0,6.11a32.78,32.78,0,0,1-.64,7.58,17.63,17.63,0,0,0-.29,4.05c0,2.16,1,3.19,3,3.31,1.35.09,2.71.08,4.07.11a26.12,26.12,0,0,0,6.6-.63,3.92,3.92,0,0,1,1-.19c5.3.1,10.49-1.11,15.76-1.28,1.86-.06,3.72-.35,5.58-.55.34,0,.67-.18,1-.18,5.12,0,10.16-1,15.25-1.28a7,7,0,0,1,1,0c2.93.2,5.71-.92,8.62-1a36.37,36.37,0,0,0,8.13-.63,13.45,13.45,0,0,1,3-.37,44.61,44.61,0,0,0,9.64-.9,14.15,14.15,0,0,1,3.06-.16,26.94,26.94,0,0,0,7.1-.71,2.09,2.09,0,0,1,.5-.08c5-.07,9.83-.82,14.74-1.26a11.16,11.16,0,0,1,1.53,0c2.94.2,5.71-.93,8.62-1a39.63,39.63,0,0,0,8.13-.62,23.2,23.2,0,0,1,4.57-.41c2.73-.06,5.45,0,8.18,0h0Z" transform="translate(-448.23 -17.45)"/><path class="cls-15" d="M671.78,185.16a3.88,3.88,0,0,0-.23-.33c0,1.64-.14,3.32.8,4.78a3.15,3.15,0,0,0,.22.33C672.54,188.3,672.72,186.62,671.78,185.16Z" transform="translate(-448.23 -17.45)"/><path class="cls-15" d="M670.75,173.9a3.15,3.15,0,0,0-.22-.33c0,1.64-.14,3.32.79,4.78a3.39,3.39,0,0,0,.23.34C671.51,177.05,671.69,175.36,670.75,173.9Z" transform="translate(-448.23 -17.45)"/><path class="cls-43" d="M480,318.44a6,6,0,0,1,1.42.56c3.4,1.92,7,3.52,10.2,5.77a21.81,21.81,0,0,0,2.16,1.36c4,2.21,8.06,4.39,12.08,6.61,2.82,1.56,5.57,3.27,8.44,4.76,5.28,2.75,10.2,6.1,15.51,8.82s10.3,6,15.55,8.77c5.09,2.72,9.9,5.93,15.06,8.57s10.37,5.84,15.53,8.79c6.19,3.54,12.37,7.12,18.59,10.62a23.15,23.15,0,0,0,3.32,1.25h0a11.2,11.2,0,0,0-.68-1.92c-2.06-3.53-4-7.11-6.29-10.53-4.66-7.13-8.85-14.55-13.27-21.83-2.47-4.08-4.91-8.18-7.39-12.25-3.19-5.23-6.43-10.44-9.62-15.68-2.56-4.22-5-8.55-7.64-12.69-3.52-5.44-6.75-11.05-10.11-16.58q-5.85-9.6-11.73-19.18a4.18,4.18,0,0,0-2.9-1.9c-4.59,3.26-8.76,7-13.08,10.6-3.28,2.71-6.38,5.65-9.7,8.29-1.74,1.38-3.44,2.78-5,4.32-.74.71-1.53,1.36-2.32,2-2.9,2.37-6,4.56-8.69,7.11-4,3.73-8.39,6.94-12.35,10.68l-1,1,1-1c-.34.34-.67.67-1,1h0l2.07,3.09A2.25,2.25,0,0,1,480,318.44Z" transform="translate(-448.23 -17.45)"/><path class="cls-44" d="M597.84,384.32a23.15,23.15,0,0,1-3.32-1.25c-6.22-3.5-12.4-7.08-18.59-10.62-5.16-2.95-10.23-6.09-15.53-8.79s-10-5.85-15.06-8.57c-5.25-2.81-10.26-6.07-15.55-8.77s-10.23-6.07-15.51-8.82c-2.87-1.49-5.62-3.2-8.44-4.76-4-2.22-8.06-4.4-12.08-6.61a21.81,21.81,0,0,1-2.16-1.36c-3.22-2.25-6.8-3.85-10.2-5.77a6,6,0,0,0-1.42-.56,2.25,2.25,0,0,0-1.92.41c1.63,2.78,3.16,5.64,4.93,8.34q9.51,14.49,18.76,29.16c2.9,4.6,6,9.1,8.84,13.71,6.22,9.95,12.66,19.75,19,29.6,5,7.71,10,15.38,15,23.09,1.2,1.85,2.27,3.79,3.34,5.72a1.72,1.72,0,0,1-.28,1.9l1.06,1a5.54,5.54,0,0,0,2.71-1.33c1-.94,2-1.89,2.94-2.84a24.47,24.47,0,0,1,3-2.81c3.69-2.52,6.62-5.85,9.81-8.91a27.33,27.33,0,0,1,3.4-3.07,42.51,42.51,0,0,0,5.73-5.06,64.25,64.25,0,0,1,7.21-6.47,37.61,37.61,0,0,0,4.82-4.55,74.42,74.42,0,0,1,11.54-10c0-.33,0-.67,0-1l-2-1Z" transform="translate(-448.23 -17.45)"/><path class="cls-45" d="M544.88,435.73c1.26-1.13,2.56-2.22,3.84-3.32h0c0-.34,0-.67,0-1h0l-1.06-1c-1.76-.65-3.51-1.32-5.28-1.93-2.42-.84-4.88-1.57-7.27-2.47-7.81-3-15.64-5.86-23.56-8.5-.65-.22-1.3-.42-1.94-.66-8-3.05-16-6-24-8.68l-1.94-.67-22.11-8-2.71-1v4l7.1,7.76c3.84,4.24,8.82,9.71,11,12l4.08,4.33h6.37c7.26,0,7.35.08,7.35,6.94,0,6.28.32,6.45,14.37,5.71l11.83-.57,3-4c2.61-3.51,3.67-4.25,7.92-5.55a32.57,32.57,0,0,1,5.14-1.31c.14.07.38,6.14.65,14.2a32.16,32.16,0,0,1,4.2-3.42A31.05,31.05,0,0,0,544.88,435.73Z" transform="translate(-448.23 -17.45)"/><path class="cls-46" d="M476,315.75l1-1" transform="translate(-448.23 -17.45)"/><path class="cls-47" d="M807,366.75a56.56,56.56,0,0,1-4.1-4.54,42.1,42.1,0,0,0-4-4.61q-9.58-9.57-19.16-19.16a30.49,30.49,0,0,1-3.4-3.8,37.09,37.09,0,0,0-4.38-5q-8.85-8.87-17.71-17.72a29.79,29.79,0,0,1-3.42-3.78,37.12,37.12,0,0,0-4.36-5l-17-17a23.49,23.49,0,0,1-3.08-3.4,38.94,38.94,0,0,0-5.06-5.74c-2.28-2.3-4.6-4.56-6.85-6.88-1.07-1.1-2-2.32-3-3.48a9,9,0,0,0-2.89,2.79c-2.59,3.75-5.21,7.48-7.81,11.23q-5.47,7.92-10.93,15.85c-.39.55-.82,1.07-1.21,1.62-1.55,2.22-3.13,4.41-4.61,6.67a18,18,0,0,0-1.21,2.76c1.47,1.5,3.43,2.21,5.25,3.12q29.28,14.66,58.58,29.28,29.52,14.76,59,29.5c2,1,3.88,2.17,6.11,2.56C810.55,370,808.63,368.49,807,366.75Z" transform="translate(-448.23 -17.45)"/><path class="cls-48" d="M1271.41,374.58q-.63,7.08-1.42,14.15a60,60,0,0,0-.6,7.08,30.23,30.23,0,0,1-.51,6.07,24.48,24.48,0,0,0-.48,5.05,26.93,26.93,0,0,1-1.06,8c.34,0,.68,0,1,0h0a6.83,6.83,0,0,1,2.85-1c3.18-.57,6.39-1,9.5-1.87,6.43-1.7,13-2.59,19.46-4.18,3.8-.94,7.65-1.66,11.48-2.46,6.16-1.3,12.35-2.47,18.45-4.07,1.15-.3,2.33-.47,3.5-.7,1.67-.32,3.34-.61,5-1l20-4.27c2.66-.57,5.36-1,8-1.72,6.41-1.75,13-2.61,19.45-4.21,3.47-.87,7-1.51,10.48-2.26,6.16-1.32,12.36-2.41,18.46-4,1.8-.48,3.68-.67,5.5-1.07q6.74-1.47,13.45-3c.2-.05.32-.4.48-.62-.13-.09-.25-.24-.39-.26-1.34-.22-2.74-.17-3.86-1.12h0c-2.39,0-4.78,0-7.17-.08a27.81,27.81,0,0,1-4.57-.38,33.52,33.52,0,0,0-6.62-.57c-3.41,0-6.82,0-10.23-.07a25,25,0,0,1-4.58-.38,36.21,36.21,0,0,0-7.12-.58c-2.9,0-5.8,0-8.7-.06a19.67,19.67,0,0,1-4.07-.27,41.53,41.53,0,0,0-9.16-.7c-2.73,0-5.46,0-8.19-.06a24.9,24.9,0,0,1-4.58-.34,37.61,37.61,0,0,0-7.63-.62c-2.73,0-5.46,0-8.19-.06a24.9,24.9,0,0,1-4.58-.33,36.92,36.92,0,0,0-7.63-.63c-3.07,0-6.15,0-9.21-.07a32,32,0,0,1-5.09-.41,35.81,35.81,0,0,0-6.61-.54c-2.73,0-5.46,0-8.19,0a34.12,34.12,0,0,1-6.61-.57,29.19,29.19,0,0,0-4.58-.39c-2.39-.07-4.78-.06-7.16-.08h0l-8.21,0C1271.44,371.53,1271.55,373.06,1271.41,374.58Z" transform="translate(-448.23 -17.45)"/><path class="cls-49" d="M948.88,749.77c.48-1.08,1.12-2.1,1.7-3.14,1.15-2.08,2.36-4.13,3.47-6.23,1.42-2.71,2.76-5.47,4.13-8.21l0-.07-17.63-5c-6.22-1.77-12.47-3.45-18.65-5.33q-8.31-2.53-16.69-4.76c-6.58-1.74-13-4-19.63-5.61-1.54-.37-3.07-.81-4.59-1.26l.25,17.22L879,736.53l-2.2,9.14L879,750a22.54,22.54,0,0,0,3.11,4.9c.49.32,10,.65,21.06.65,17.72,0,20.17.16,19.76,1.22-1,2.37,1.31,3.68,6.21,3.68h4.65l.49,2.94c.66,3.87,1.65,5,5.17,5.19.4-.81.8-1.61,1.19-2.41C943.32,760.67,946.42,755.38,948.88,749.77Z" transform="translate(-448.23 -17.45)"/><path class="cls-50" d="M983.12,726.91l1.49-.34c6.79-1.6,13.57-3.25,20.37-4.8,7.8-1.76,15.63-3.42,23.43-5.15,3.82-.84,7.63-1.73,11.45-2.59q14.94-3.35,29.89-6.69c5.47-1.24,10.94-2.55,16.4-3.82h0l2-1-1,0h0a4.5,4.5,0,0,1-2.75-2.13q-3.95-6-7.86-11.93c-.46-.72-.82-1.5-1.28-2.21-4.07-6.28-8.18-12.54-12.22-18.83C1058,659.5,1053,651.61,1048,643.73l-.55-.86c-4.83-7.41-9.69-14.8-14.48-22.24-4.23-6.57-8.35-13.22-12.58-19.8-2.57-4-5.26-8-7.9-11.91h0a14.29,14.29,0,0,0-3,5.3q-4.57,12.18-9.13,24.35c-1.54,4.15-3,8.32-4.52,12.47-1.71,4.62-3.48,9.22-5.2,13.84s-3.27,8.94-4.91,13.41c-1.59,4.31-3.17,8.62-4.77,12.92-1.66,4.46-3.36,8.91-5,13.36-1.08,2.87-2.14,5.73-3.21,8.6q-4.47,11.94-8.93,23.88c-1.31,3.5-2.61,7-3.94,10.51-.49,1.3-1.16,1.78-2,.26a6.91,6.91,0,0,0-.64-.79,10,10,0,0,0,1,5.1h0v.06l1,0h0Z" transform="translate(-448.23 -17.45)"/><path class="cls-51" d="M1028.38,884.45c.45-.91,1-1.8,1.34-2.74,3.25-8.24,7.66-15.93,11.46-23.9,1.17-2.45,2.23-5,3.35-7.43.56-1.24,1.13-2.48,1.73-3.7,2.12-4.26,4.29-8.5,6.37-12.78,1.11-2.29,2.08-4.65,3.13-7,.56-1.24,1.12-2.48,1.72-3.69,2-4.12,4.11-8.21,6.15-12.33a110.19,110.19,0,0,0,4.7-10.17,69.11,69.11,0,0,1,3.11-6.43,11,11,0,0,0,1.4-4.85h0Q1018.39,762.25,964,735.05c-1.52-.76-3.15-1.28-4.72-1.92.42,1.47.74,3,1.3,4.4,2.17,5.54,4.37,11.06,6.64,16.57,3.23,7.85,6.55,15.67,9.78,23.53,2.27,5.5,4.41,11.06,6.68,16.56,3.11,7.54,6.32,15,9.42,22.58,2.27,5.5,4.36,11.07,6.64,16.57,3,7.23,6.12,14.39,9.1,21.61,3.9,9.43,7.71,18.89,11.56,28.33.83,2.05,1.64,4.1,2.45,6.16a5,5,0,0,0,1.93,2.31Z" transform="translate(-448.23 -17.45)"/><path class="cls-52" d="M1116.32,824.23c-2.61-2.16-5.3-4.24-8-6.34a91.86,91.86,0,0,1-8.65-7.12,62.72,62.72,0,0,0-5.89-4.85c-3.33-2.63-6.7-5.21-10-7.82-1.34-1.05-2.65-2.12-4-3.21s-2.85-2.4-4.24-3.65c-.63-.56-1.17-1.22-1.75-1.83h0l-1,.05h0a11,11,0,0,1-1.4,4.85,69.11,69.11,0,0,0-3.11,6.43,110.19,110.19,0,0,1-4.7,10.17c-2,4.12-4.11,8.21-6.15,12.33-.6,1.21-1.16,2.45-1.72,3.69-1,2.32-2,4.68-3.13,7-2.08,4.28-4.25,8.52-6.37,12.78-.6,1.22-1.17,2.46-1.73,3.7-1.12,2.47-2.18,5-3.35,7.43-3.8,8-8.21,15.66-11.46,23.9-.37.94-.89,1.83-1.34,2.74l-3.65,7.3v1c2.49-.54,5-1,7.49-1.63,12.92-3.13,25.83-6.31,38.76-9.42,10.94-2.63,21.78-5.66,32.8-8,1.83-.38,3.62-1,5.43-1.45l.34-.1.19-10,3.92-6.45c3.43-5.71,4.57-6.85,9.88-10.12a85.36,85.36,0,0,0,9.81-7.69c-3.23-2.49-6.49-5-9.58-7.6C1121.32,828.3,1118.81,826.28,1116.32,824.23Z" transform="translate(-448.23 -17.45)"/><path class="cls-53" d="M964,735.05q54.45,27.18,108.89,54.41h0l1-.05h0c.07-1.76-.15-3.57,1-5.1h0a19.77,19.77,0,0,1,.06-2c.55-4,1.28-8,1.66-12.1.57-6.1,2-12,2.56-18.16.46-5.24,1.54-10.41,2.35-15.62.13-.83.37-1.66.44-2.51.51-6.61,1.72-13.12,2.77-19.66.29-1.84.3-3.72.43-5.58h0a5.88,5.88,0,0,1,1-4.11h0c0-.33,0-.67,0-1-5.46,1.27-10.93,2.58-16.4,3.82q-14.94,3.38-29.89,6.69c-3.82.86-7.63,1.75-11.45,2.59-7.8,1.73-15.63,3.39-23.43,5.15-6.8,1.55-13.58,3.2-20.37,4.8l-1.49.34-23.93,5.26h0c0,.32,0,.64,0,1h0C960.8,733.77,962.43,734.29,964,735.05Z" transform="translate(-448.23 -17.45)"/><path class="cls-54" d="M1295,754.34a36.12,36.12,0,0,0-.64-7.61,24.44,24.44,0,0,1-.37-5.07c0-5.27,0-10.55,0-15.82a31.51,31.51,0,0,0-.45-5.58,34,34,0,0,1-.55-6.59q0-10.73,0-21.44l0-1h0c-.33,0-.67,0-1,0h0c-7.45,5.66-15,11.23-22.32,17-10,7.86-20.19,15.56-30.33,23.29-4.6,3.5-9.25,6.94-13.76,10.55-5.57,4.47-11.37,8.63-17,13s-11.22,8.83-16.87,13.19c-4.17,3.22-8.42,6.33-12.63,9.5-1.09.82-2.22,1.59-3.22,2.51a20.07,20.07,0,0,1-4.63,3.13,5.45,5.45,0,0,1-2.07,2h0a7.65,7.65,0,0,0-.67,1.91c-.23,4.23-1.35,8.35-1.41,12.6a50.61,50.61,0,0,1-.51,5c-.13,1.14-.27,2.27-.41,3.41,2.63-.59,5.55-1.15,8.83-1.66,13.8-2.2,16.9-3.59,18.37-7.84l1-2.85,12.16-.66c6.7-.41,12.58-1.06,13-1.47a10.09,10.09,0,0,0,1.71-3.43l.9-2.61,27.35-.24,27.43-.17,2.54-2.86a19.94,19.94,0,0,0,3.43-6.12c1-3.44.17-3.14,12.32-6.18-.07-1-.07-2.06-.08-3.09C1295,764.21,1295,759.27,1295,754.34Z" transform="translate(-448.23 -17.45)"/><path class="cls-55" d="M1318.1,687.35c-6.06.78-12.09,1.83-18.14,2.77l-7,1.13h0l0,1a56.64,56.64,0,0,1,9.45,9.31c2,2.37,4,4.64,6.15,6.82s4.57,4.59,6.84,6.9a19.35,19.35,0,0,1,2.41,2.64,50.72,50.72,0,0,0,5.76,6.49c1,1.05,2,2.08,3.09,3.1.82-2.2,2.51-4.36,7-9.83l7.19-8.81,1.79-8.74c1.39-6.45,1.8-10.45,1.47-15,0-.54,0-1-.06-1.52-1.91.23-3.83.47-5.74.74C1331.54,685.28,1324.85,686.48,1318.1,687.35Z" transform="translate(-448.23 -17.45)"/><path class="cls-56" d="M1371,546.41a25.42,25.42,0,0,1-6.09.58c-5.79.08-11.49,1.36-17.3,1.25a4.39,4.39,0,0,0-1,.18,26.52,26.52,0,0,1-6.09.63,30.72,30.72,0,0,0-5.08.41,39.52,39.52,0,0,1-6.6.61,36,36,0,0,0-5.6.4,39.52,39.52,0,0,1-6.6.61c-5.45.08-10.81,1.3-16.27,1.28a13,13,0,0,0-2,.39,13.8,13.8,0,0,1-2,.27c-4.09.1-8.18.09-12.2,1a6,6,0,0,1-1.53.07,42.68,42.68,0,0,0-11.15,1.12h0c-.45,3.71-.85,7.43-1.37,11.13-.46,3.36-1.11,6.7-1.58,10.07-1.15,8.24-2.22,16.5-3.39,24.74-.83,5.89-1.79,11.76-2.66,17.64-.77,5.21-1.5,10.42-2.22,15.64-.12.84-.1,1.7-.14,2.55a1.07,1.07,0,0,0-.25.32l.25-.32c.1,1.41.45,2.66,2.08,3h0c1.22-.92,2.39-1.91,3.68-2.73,4.3-2.74,8.64-5.42,13-8.12l2.6-1.61q9.08-5.7,18.14-11.41c4.17-2.64,8.31-5.32,12.48-7.95q13.15-8.29,26.35-16.56c4.31-2.72,8.58-5.51,12.9-8.23,8.63-5.44,17.29-10.84,25.92-16.28l2.42-1.54c.11-9,.16-15.35.13-20a65,65,0,0,1-7.76.56A3.92,3.92,0,0,0,1371,546.41Z" transform="translate(-448.23 -17.45)"/><path class="cls-57" d="M1351.34,583.43c-4.32,2.72-8.59,5.51-12.9,8.23q-13.17,8.3-26.35,16.56c-4.17,2.63-8.31,5.31-12.48,7.95q-9.06,5.72-18.14,11.41l-2.6,1.61c-4.33,2.7-8.67,5.38-13,8.12-1.29.82-2.46,1.81-3.68,2.73h0l-2.06,2.11c.78,1.32,1.49,2.68,2.34,4q14.7,22.06,29.43,44.11h1c.4-.55.76-1.13,1.2-1.64,2.67-3.09,5.46-6.08,8-9.27,3.19-4,6.36-8,9.8-11.74.46-.5.83-1.07,1.27-1.6,2.47-3,4.93-6.06,7.44-9.06s5-5.56,7.25-8.56c1.64-2.2,3.56-4.12,5.27-6.23,2.47-3,4.81-6.18,7.38-9.12,3.25-3.71,6.33-7.56,9.47-11.35,2-2.36,4-4.65,5.88-7,2.33-2.93,5-5.56,7.27-8.54,2-2.59,4.2-4.92,6.22-7.44,2.45-3,4.91-6.08,7.42-9.08.87-1,1.75-2,2.63-3l.22-20.37c0-.17,0-.34,0-.51l-2.42,1.54C1368.63,572.59,1360,578,1351.34,583.43Z" transform="translate(-448.23 -17.45)"/><path class="cls-55" d="M1291.93,691.21h0c.33,0,.67,0,1,0h0c0-.34,0-.68,0-1h-1C1291.93,690.54,1291.92,690.88,1291.93,691.21Z" transform="translate(-448.23 -17.45)"/><path class="cls-58" d="M1262.68,413c-4.76-1.87-9.55-3.64-14.3-5.51-7.92-3.12-15.81-6.3-23.76-9.34-13.68-5.22-27.23-10.76-40.86-16.1-3.48-1.37-7-2.51-10.58-3.76h0c0,3.58-.19,7.17.81,10.67,0,5.28.79,10.51,1.18,15.76a50.07,50.07,0,0,0,.71,7.11,23.89,23.89,0,0,1,.34,4.57,39.82,39.82,0,0,0,.65,7.62,21.37,21.37,0,0,1,.35,5.59c-.18,3.12.84,6.07,1,9.13.17,2.89,0,5.77.65,8.65a28.06,28.06,0,0,1,.41,5.59,39.61,39.61,0,0,0,.6,6.6,34.64,34.64,0,0,1,.42,5.59,37.49,37.49,0,0,0,.59,6.6,27.8,27.8,0,0,1,.43,5.08,28.63,28.63,0,0,0,.73,7.61,1.42,1.42,0,0,1,.08.5c-.1,5.47,1.21,10.82,1.26,16.27a17.61,17.61,0,0,0,.14,3.57,54,54,0,0,1,.94,11.69,6.55,6.55,0,0,0,.21,1.52,4.24,4.24,0,0,0,1.78,2.41h0a176.87,176.87,0,0,1,11-14.69c.77-.9,1.39-1.93,2.12-2.87,5.35-7,10.62-14.15,16.12-21.07,3.49-4.4,6.77-9,10.27-13.34s6.75-9,10.27-13.34,6.74-9,10.26-13.34,6.59-8.66,10-12.94c2.53-3.2,5.11-6.36,7.48-9.68a11.27,11.27,0,0,1,3.36-3.09h0c0-.32,0-.65,0-1h0C1265.79,414.33,1264.26,413.58,1262.68,413Z" transform="translate(-448.23 -17.45)"/><path class="cls-59" d="M1264,419.11c-2.37,3.32-5,6.48-7.48,9.68-3.37,4.28-6.53,8.71-10,12.94s-6.74,9-10.26,13.34-6.76,8.95-10.27,13.34-6.78,8.94-10.27,13.34c-5.5,6.92-10.77,14-16.12,21.07-.73.94-1.35,2-2.12,2.87a176.87,176.87,0,0,0-11,14.69h0l-2,1v1h0l2.06,2.06h0c.92-1.41,1.34-1.65,2.32-1.28l10.5,4,17.2,6.46c1.91.72,3.79,1.51,5.7,2.23q14.79,5.63,29.58,11.23C1256.87,549,1262,551,1267,553a13.57,13.57,0,0,0,4.4,1.19c0-6.82,0-13.63,0-20.45a28.9,28.9,0,0,0-.41-5.58,36.19,36.19,0,0,1-.6-7.11c0-7.32,0-14.65,0-22a28.11,28.11,0,0,0-.39-5.59,37.51,37.51,0,0,1-.62-7.62c0-7.32,0-14.65,0-22a30.53,30.53,0,0,0-.46-5.58,34.16,34.16,0,0,1-.54-6.61c0-7.49,0-15,0-22.48a22.58,22.58,0,0,0-.34-5.08,37,37,0,0,1-.68-8.12h0A11.27,11.27,0,0,0,1264,419.11Z" transform="translate(-448.23 -17.45)"/><path class="cls-60" d="M1267,553c-5.07-2-10.15-4-15.24-5.89q-14.77-5.62-29.58-11.23c-1.91-.72-3.79-1.51-5.7-2.23l-17.2-6.46-10.5-4c-1-.37-1.4-.13-2.32,1.28h0c2,3.11,4.22,6.16,6.13,9.36,4,6.71,8.2,13.3,12.34,19.92,5.14,8.2,10.16,16.48,15.24,24.72,2,3.18,3.94,6.34,5.92,9.51l5.13,8.21c5.32,8.49,10.67,17,16,25.47,3.41,5.48,6.73,11,10.1,16.52.46.75,1.31,1.14,2,0a4.5,4.5,0,0,1,.27-.43c.12-.17.25-.32.37-.49a1.07,1.07,0,0,1,.25-.32c0-.85,0-1.71.14-2.55.72-5.22,1.45-10.43,2.22-15.64.87-5.88,1.83-11.75,2.66-17.64,1.17-8.24,2.24-16.5,3.39-24.74.47-3.37,1.12-6.71,1.58-10.07.52-3.7.92-7.42,1.37-11.13h0c0-.35,0-.7-.08-1.05h0A13.57,13.57,0,0,1,1267,553Z" transform="translate(-448.23 -17.45)"/><path class="cls-61" d="M953.74,556c5.36,3,10.7,5.94,16,8.92.15.08.29.19.44.27q7.18,3.87,14.36,7.76c1.8,1,3.56,2,5.34,3,.44.25.86.56,1.32.78,6.72,3.3,13.14,7.16,19.74,10.7a8.75,8.75,0,0,0,1.45.46v0h0c1.11-3.25,3.09-6,4.71-9,1.86-3.44,3.93-6.77,5.9-10.15l5.9-10.15c1.54-2.65,3.09-5.29,4.6-7.95,1.94-3.41,3.81-6.84,5.76-10.24q4.18-7.3,8.44-14.58c1.79-3.09,3.66-6.13,5.43-9.24,3.37-5.91,6.68-11.86,10-17.79.5-.89,1.07-1.74,1.58-2.62l9.44-16.36c2-3.39,4-6.74,5.85-10.18,3.23-6,7.14-11.6,10.14-17.72l-1.26-.61a1.87,1.87,0,0,1-.8-.39c-1.47-.44-3-.83-4.4-1.33-6.44-2.24-12.93-4.3-19.31-6.72-7-2.64-14.21-4.79-21.24-7.42s-14.46-5.11-21.7-7.62c-6.28-2.18-12.6-4.24-18.83-6.56-8.14-3-16.4-5.76-24.61-8.6l-31.42-10.84c-.32-.11-.65-.21-1-.34-6.63-2.73-13.5-4.75-20.29-7l0,.2h0c0,5.79,0,11.58,0,17.36a34.82,34.82,0,0,0,.57,6.6,30.59,30.59,0,0,1,.43,5.58c0,7.83,0,15.66,0,23.49a38.21,38.21,0,0,0,.65,8.12,28.1,28.1,0,0,1,.36,5.59c0,7.83,0,15.66,0,23.49a36.86,36.86,0,0,0,.61,7.62,28,28,0,0,1,.39,5.58c0,8,0,16,0,24a32.08,32.08,0,0,0,.6,7.11,23,23,0,0,1,.4,4.56c.06,2.72,0,5.45,0,8.17,0,.35,0,.7,0,1,3.82,1.87,7.61,3.78,11.26,6C945,551.45,949.41,553.64,953.74,556Z" transform="translate(-448.23 -17.45)"/><path class="cls-36" d="M1090.25,450.82l0,0h0l-2.06.06.8.39,1.26.61C1090.24,451.52,1090.24,451.17,1090.25,450.82Z" transform="translate(-448.23 -17.45)"/><path class="cls-62" d="M1013.47,587.87l1-1c3-1.08,6.12-2.13,9.15-3.26,4.79-1.8,9.55-3.65,14.32-5.49l11.94-4.58c2.7-1,5.42-2,8.13-3.07q15.06-5.7,30.12-11.42c5.42-2.07,10.8-4.21,16.21-6.3,2.54-1,5.11-1.89,7.67-2.85L1130.2,543q7.65-2.89,15.29-5.82,6.93-2.64,13.87-5.25c1.11-.43,2.24-.83,3.35-1.26,5.24-2,10.48-4.09,15.74-6.09,1.27-.48,2.61-.79,3.91-1.18l2.06-1h0v-1c-6.38-4.8-12.65-9.74-19.16-14.36-8.18-5.8-16-12.05-24.19-17.86-7.75-5.52-15.21-11.43-23-16.95-5.67-4.05-11.22-8.25-16.84-12.37-2.74-2-5.42-4.1-8.15-6.12a4.56,4.56,0,0,1-1.86-2.93h-1c0,.35,0,.7,0,1-3,6.12-6.91,11.73-10.14,17.72-1.86,3.44-3.9,6.79-5.85,10.18l-9.44,16.36c-.51.88-1.08,1.73-1.58,2.62-3.35,5.93-6.66,11.88-10,17.79-1.77,3.11-3.64,6.15-5.43,9.24q-4.24,7.28-8.44,14.58c-2,3.4-3.82,6.83-5.76,10.24-1.51,2.66-3.06,5.3-4.6,7.95l-5.9,10.15c-2,3.38-4,6.71-5.9,10.15-1.62,3-3.6,5.78-4.71,9h0l1,0Z" transform="translate(-448.23 -17.45)"/><path class="cls-62" d="M1013.47,587.87c.32-.35.72-.61,1-1Z" transform="translate(-448.23 -17.45)"/><path class="cls-63" d="M1093.13,453.75c2.73,2,5.41,4.11,8.15,6.12,5.62,4.12,11.17,8.32,16.84,12.37,7.74,5.52,15.2,11.43,23,16.95,8.17,5.81,16,12.06,24.19,17.86,6.51,4.62,12.78,9.56,19.16,14.36l2-1h0a4.24,4.24,0,0,1-1.78-2.41,6.55,6.55,0,0,1-.21-1.52,54,54,0,0,0-.94-11.69,17.61,17.61,0,0,1-.14-3.57c-.05-5.45-1.36-10.8-1.26-16.27a1.42,1.42,0,0,0-.08-.5,28.63,28.63,0,0,1-.73-7.61,27.8,27.8,0,0,0-.43-5.08,37.49,37.49,0,0,1-.59-6.6,34.64,34.64,0,0,0-.42-5.59,39.61,39.61,0,0,1-.6-6.6,28.06,28.06,0,0,0-.41-5.59c-.66-2.88-.48-5.76-.65-8.65-.17-3.06-1.19-6-1-9.13a21.37,21.37,0,0,0-.35-5.59,39.82,39.82,0,0,1-.65-7.62,23.89,23.89,0,0,0-.34-4.57,50.07,50.07,0,0,1-.71-7.11c-.39-5.25-1.18-10.48-1.18-15.76-1-3.5-.84-7.09-.81-10.67h0l-1-.06h0c-1.93,1.16-3.33,2.91-4.94,4.42a45.16,45.16,0,0,1-4.5,4.16,53.42,53.42,0,0,0-6.11,5.42,46,46,0,0,1-4.83,4.55,63.29,63.29,0,0,0-6.87,6.1,19.2,19.2,0,0,1-2.66,2.38,41.44,41.44,0,0,0-6.13,5.4,37,37,0,0,1-4.13,3.8,46.92,46.92,0,0,0-5.75,5.05,50.08,50.08,0,0,1-5.2,4.91,66.49,66.49,0,0,0-6.86,6.11,19.27,19.27,0,0,1-2.67,2.37,38.46,38.46,0,0,0-5.76,5,29.2,29.2,0,0,1-3.7,3.52c-3.12,2.15-5.65,4.91-8.37,7.49-.74.69-1.59,1.28-2.39,1.91h0A4.56,4.56,0,0,0,1093.13,453.75Z" transform="translate(-448.23 -17.45)"/><path class="cls-64" d="M814.87,504h0c1.28-1.12,2.64-2.16,3.84-3.36q51.19-51.12,102.35-102.29c1.2-1.19,2.24-2.55,3.36-3.83h0a11.49,11.49,0,0,0-1.85-.8c-1-.23-2-.27-3-.46-12-2.26-24-4.57-36-6.81-7.67-1.44-15.37-2.78-23-4.2-3.17-.59-6.32-1.29-9.49-1.88-8.52-1.58-17-3.11-25.56-4.68-2.83-.52-5.66-1.09-8.49-1.64h0c-2.73,0-5.45,0-8.18,0a23.2,23.2,0,0,0-4.57.41,39.63,39.63,0,0,1-8.13.62c-2.91.06-5.68,1.19-8.62,1a11.16,11.16,0,0,0-1.53,0c-4.91.44-9.79,1.19-14.74,1.26a2.09,2.09,0,0,0-.5.08,26.94,26.94,0,0,1-7.1.71,14.15,14.15,0,0,0-3.06.16,44.61,44.61,0,0,1-9.64.9,13.45,13.45,0,0,0-3,.37,36.37,36.37,0,0,1-8.13.63c-2.91.07-5.69,1.19-8.62,1a7,7,0,0,0-1,0c-5.09.31-10.13,1.26-15.25,1.28-.33,0-.66.15-1,.18-1.86.2-3.72.49-5.58.55-5.27.17-10.46,1.38-15.76,1.28a3.92,3.92,0,0,0-1,.19,26.12,26.12,0,0,1-6.6.63,5.49,5.49,0,0,1-3.21,1l-2.93.06a22.91,22.91,0,0,0,3.35,7.41c1.81,2.89,3.31,5.94,4.87,9,1.94,3.79,3.79,7.61,6,11.25,1.86,3,3.25,6.36,4.91,9.53,1.26,2.41,2.63,4.75,3.94,7.14.73,1.34,1.44,2.7,2.15,4.06,2.51,4.82,4.79,9.77,7.64,14.42,1.86,3,3.23,6.38,4.88,9.54,1.18,2.26,2.49,4.46,3.71,6.69.82,1.49,1.6,3,2.39,4.51,2.43,4.68,4.65,9.46,7.41,14,1.86,3,3.23,6.37,4.88,9.53,1.18,2.26,2.48,4.46,3.7,6.7.82,1.49,1.61,3,2.4,4.5s1.49,3,2.22,4.44c8.93,3.48,18.66,6.88,28.87,10.08L808.46,507A22.63,22.63,0,0,0,814.87,504Z" transform="translate(-448.23 -17.45)"/><path class="cls-65" d="M929.5,533.7a23,23,0,0,0-.4-4.56,32.08,32.08,0,0,1-.6-7.11c0-8,0-16,0-24a28,28,0,0,0-.39-5.58,36.86,36.86,0,0,1-.61-7.62c0-7.83,0-15.66,0-23.49a28.1,28.1,0,0,0-.36-5.59,38.21,38.21,0,0,1-.65-8.12c0-7.83,0-15.66,0-23.49a30.59,30.59,0,0,0-.43-5.58,34.82,34.82,0,0,1-.57-6.6c0-5.78,0-11.57,0-17.36h-.19a7.52,7.52,0,0,0-.82,0h0c-1.12,1.28-2.16,2.64-3.36,3.83q-51.15,51.17-102.35,102.29c-1.2,1.2-2.56,2.24-3.84,3.36h0l1,2c.5.12,1,.2,1.49.36,10.07,3.23,20.09,6.59,30.21,9.67,11.09,3.37,22,7.27,33.11,10.64,8.17,2.47,16.22,5.25,24.35,7.85,7,2.22,14,4.44,21,6.61a33.83,33.83,0,0,0,3.5.69C929.52,539.15,929.56,536.42,929.5,533.7Z" transform="translate(-448.23 -17.45)"/><path class="cls-66" d="M677.75,389.26a5.16,5.16,0,0,1,1-2.86h0l2.93-.06a5.49,5.49,0,0,0,3.21-1c-1.36,0-2.72,0-4.07-.11-2-.12-3-1.15-3-3.31a17.63,17.63,0,0,1,.29-4.05,32.78,32.78,0,0,0,.64-7.58c0-2,0-4.08,0-6.11a30.68,30.68,0,0,1,.49-5.57,32.84,32.84,0,0,0,.49-5.05c.09-2.71,0-5.43,0-8.14a34.47,34.47,0,0,1,.68-8.1,18.73,18.73,0,0,0,.31-4c.06-2.89,0-5.77,0-8.66a24.19,24.19,0,0,1,.56-6.06,26,26,0,0,0,.4-7.09,5.15,5.15,0,0,0-1-2.86h0c-2.13,2-4.29,3.87-6.36,5.87-3.66,3.55-7.25,7.17-10.88,10.74a23.58,23.58,0,0,1-3,2.79,68,68,0,0,0-8.28,7.53c-3.51,3.46-7,6.94-10.51,10.39A30.7,30.7,0,0,1,638.4,349a45.27,45.27,0,0,0-5.33,4.73q-5.25,5.21-10.5,10.39a29.84,29.84,0,0,1-3.36,3.11,52.81,52.81,0,0,0-6.44,5.78c-3,3-6,6-9.07,8.94-1.21,1.18-2.54,2.24-3.81,3.36h0c0,.33,0,.67,0,1a80,80,0,0,0,4.9,9,34.58,34.58,0,0,1,1.91,3.62,91.25,91.25,0,0,0,5.36,9.86c.75,1.12,1.24,2.42,1.9,3.61,1.3,2.39,2.64,4.76,4,7.14.17.29.36.58.52.88,3.11,5.86,6.21,11.72,9.35,17.57,1,1.95,2.16,3.86,3.24,5.79.26.44.51.88.76,1.33,1.8-.48,2.53-2,3.1-5.52.82-4.82,6.13-10,9.64-9.39,1.71.33,3.92-.49,8.82-3.27,5.79-3.26,7.1-3.67,11.59-3.67a24.41,24.41,0,0,1,12.78,3.48q0-16.94,0-33.89C677.69,391.64,677.72,390.45,677.75,389.26Z" transform="translate(-448.23 -17.45)"/><path class="cls-67" d="M627.77,438c-3.14-5.85-6.24-11.71-9.35-17.57-.16-.3-.35-.59-.52-.88-1.32-2.38-2.66-4.75-4-7.14-.66-1.19-1.15-2.49-1.9-3.61a91.25,91.25,0,0,1-5.36-9.86,34.58,34.58,0,0,0-1.91-3.62,80,80,0,0,1-4.9-9,74.42,74.42,0,0,0-11.54,10,37.61,37.61,0,0,1-4.82,4.55,64.25,64.25,0,0,0-7.21,6.47,42.51,42.51,0,0,1-5.73,5.06,27.33,27.33,0,0,0-3.4,3.07c-3.19,3.06-6.12,6.39-9.81,8.91a24.47,24.47,0,0,0-3,2.81c-1,.95-1.95,1.9-2.94,2.84a5.54,5.54,0,0,1-2.71,1.33h0c0,.34,0,.67,0,1a2.79,2.79,0,0,1,1.81,1.67c.8,2.6,1.65,5.19,2.31,7.83,1,4,2.19,7.87,3.44,11.76s2.51,8.13,3.61,12.24l.05.2h51.17l.25-6.05c.24-5.14.41-5.79,1.31-4.57,1,1.39,1.22,1.39,5.06,0,5.47-2,6-2.61,6-6.12,0-3.35,1.06-4.09,6.21-4.09a7.17,7.17,0,0,0,1.79-.19c-.25-.45-.5-.89-.76-1.33C629.93,441.83,628.81,439.92,627.77,438Z" transform="translate(-448.23 -17.45)"/><path class="cls-68" d="M556.28,453.67c-1.25-3.89-2.44-7.8-3.44-11.76-.66-2.64-1.51-5.23-2.31-7.83a2.79,2.79,0,0,0-1.81-1.67h0c-1.28,1.1-2.58,2.19-3.84,3.32a31.05,31.05,0,0,1-3,2.78,32.16,32.16,0,0,0-4.2,3.42c.06,1.62.11,3.32.17,5.07l.57,19.11h21.49l-.05-.2C558.79,461.8,557.59,457.71,556.28,453.67Z" transform="translate(-448.23 -17.45)"/><path class="cls-69" d="M905.18,717q8.39,2.22,16.69,4.76c6.18,1.88,12.43,3.56,18.65,5.33l17.63,5h0a10,10,0,0,1-1-5.1h0c0-1,0-2.06-.15-3.06-.84-5.38-1.74-10.74-2.6-16.12-.45-2.85-.95-5.71-1.23-8.58-.4-4.07-1.21-8.07-1.88-12.1-.5-3-.82-6.07-1.32-9.09-1.38-8.22-2.3-16.5-3.78-24.71-1-5.68-1.65-11.44-2.48-17.16-.19-1.35-.54-2.67-.76-4-1-6.38-1.85-12.79-3-19.15-.92-5.19-1.49-10.44-2.28-15.65-.9-5.89-1.9-11.75-2.79-17.64-.86-5.72-1.59-11.45-2.46-17.17-.84-5.55-1.79-11.08-2.68-16.62-.15-1-.2-2-.3-3a11.62,11.62,0,0,0-1.52,1.35c-2.93,3.76-5.79,7.57-8.73,11.32-4.08,5.24-8.24,10.41-12.31,15.65-3.77,4.84-7.44,9.74-11.2,14.58-3.23,4.17-6.53,8.29-9.79,12.44-1,1.2-1.83,2.46-2.77,3.67-4.39,5.69-8.76,11.39-13.18,17.06,2.75,2.31,3.87,3.83,4.35,5.75,4.82,18.7,5,19.27,7.59,21.39l2.62,2.2-2.21,5.31L880.23,659l.49,34.13.24,17c1.52.45,3,.89,4.59,1.26C892.17,713,898.6,715.29,905.18,717Z" transform="translate(-448.23 -17.45)"/><path class="cls-70" d="M1259.25,638.24c-.65,1.09-1.5.7-2,0-3.37-5.51-6.69-11-10.1-16.52-5.28-8.51-10.63-17-16-25.47l-5.13-8.21c-2-3.17-4-6.33-5.92-9.51-5.08-8.24-10.1-16.52-15.24-24.72-4.14-6.62-8.33-13.21-12.34-19.92-1.91-3.2-4.08-6.25-6.13-9.36h0l-2.06-2.06h0l-2.06,1c1.09.74,1.39,1.3,1,1.95-3.48,5.27-5.73,11.2-9,16.57-3,4.77-5.21,9.95-8.09,14.77-3.67,6.14-6.56,12.69-10.26,18.81-2.81,4.66-5.21,9.56-7.81,14.34-.89,1.65-1.82,3.27-2.74,4.9-.42.74-.94,1.43-1.29,2.2-2.68,5.89-6.11,11.39-9.14,17.11-2.78,5.26-5.8,10.39-8.71,15.58-.25.45-.52.89-.73,1.35-2.64,5.91-6.13,11.38-9.13,17.11-2.77,5.27-5.82,10.39-8.72,15.58-.66,1.19-1.25,2.42-1.87,3.63-1.62,3.19-3.28,6.34-5.1,9.43-2.77,4.68-5.22,9.55-7.82,14.33-1,1.79-2,3.56-3,5.33a19.13,19.13,0,0,0-2.67,6l1,0h0c.5-.13,1-.22,1.48-.39q9.61-3.43,19.21-6.9c.64-.23,1.26-.52,1.9-.75,6.74-2.38,13.48-4.72,20.21-7.12,7.37-2.63,14.72-5.31,22.08-8l1-.35c7.23-2.53,14.46-5,21.67-7.6,6.73-2.4,13.43-4.87,20.15-7.31l1.44-.52c7.38-2.59,14.78-5.14,22.15-7.77,6.57-2.34,13.1-4.77,19.66-7.15,1.44-.52,2.9-1,4.34-1.5,3-1.08,6.08-2.21,9.14-3.25,1.11-.37,2.3-.55,3.45-.82l1.07-1,1,0h2l2.06-2.11h0c-1.63-.38-2-1.63-2.08-3l-.25.32c-.12.17-.25.32-.37.49A4.5,4.5,0,0,0,1259.25,638.24Z" transform="translate(-448.23 -17.45)"/><path class="cls-71" d="M1089.84,696.43c1-1.77,2.05-3.54,3-5.33,2.6-4.78,5.05-9.65,7.82-14.33,1.82-3.09,3.48-6.24,5.1-9.43.62-1.21,1.21-2.44,1.87-3.63,2.9-5.19,5.95-10.31,8.72-15.58,3-5.73,6.49-11.2,9.13-17.11.21-.46.48-.9.73-1.35,2.91-5.19,5.93-10.32,8.71-15.58,3-5.72,6.46-11.22,9.14-17.11.35-.77.87-1.46,1.29-2.2.92-1.63,1.85-3.25,2.74-4.9,2.6-4.78,5-9.68,7.81-14.34,3.7-6.12,6.59-12.67,10.26-18.81,2.88-4.82,5.14-10,8.09-14.77,3.32-5.37,5.57-11.3,9-16.57.43-.65.13-1.21-1-1.95-1.3.39-2.64.7-3.91,1.18-5.26,2-10.5,4.06-15.74,6.09-1.11.43-2.24.83-3.35,1.26q-6.94,2.63-13.87,5.25-7.65,2.91-15.29,5.82L1112,549.93c-2.56,1-5.13,1.87-7.67,2.85-5.41,2.09-10.79,4.23-16.21,6.3q-15,5.74-30.12,11.42c-2.71,1-5.43,2-8.13,3.07L1038,578.15c-4.77,1.84-9.53,3.69-14.32,5.49-3,1.13-6.1,2.18-9.15,3.26-.3.36-.7.62-1,1l0,0,0,0,0,0-1,0h0v1c2.64,4,5.33,7.9,7.9,11.91,4.23,6.58,8.35,13.23,12.58,19.8,4.79,7.44,9.65,14.83,14.48,22.24l.55.86c5,7.88,10,15.77,15.11,23.64,4,6.29,8.15,12.55,12.22,18.83.46.71.82,1.49,1.28,2.21q3.92,6,7.86,11.93a4.5,4.5,0,0,0,2.75,2.13h0A19.13,19.13,0,0,1,1089.84,696.43Z" transform="translate(-448.23 -17.45)"/><path class="cls-72" d="M1171.18,781.89c.67-1.37,1.42-2.71,2.22-4,2.34-3.75,4.74-7.46,7.09-11.2,2.62-4.17,5.21-8.37,7.81-12.55.54-.87,1.09-1.72,1.63-2.58q5.57-8.85,11.13-17.7c2.82-4.45,5.64-8.9,8.54-13.3s5.69-8.86,8.36-13.41c1.81-3.07,3.72-6.09,5.63-9.1,2.82-4.45,5.7-8.86,8.52-13.31s5.58-8.94,8.36-13.41c2-3.17,3.92-6.37,5.92-9.53,2.54-4,5.17-8,7.65-12,1.5-2.45,3.27-4.77,4.08-7.59h0l-1,0-1.07,1,1.07-1-1.07,1c-1.15.27-2.34.45-3.45.82-3.06,1-6.09,2.17-9.14,3.25-1.44.51-2.9,1-4.34,1.5-6.56,2.38-13.09,4.81-19.66,7.15-7.37,2.63-14.77,5.18-22.15,7.77l-1.44.52c-6.72,2.44-13.42,4.91-20.15,7.31-7.21,2.57-14.44,5.07-21.67,7.6l-1,.35c-7.36,2.66-14.71,5.34-22.08,8-6.73,2.4-13.47,4.74-20.21,7.12-.64.23-1.26.52-1.9.75q-9.6,3.46-19.21,6.9c-.48.17-1,.26-1.48.39h0l-2,1h0c0,.33,0,.67,0,1h0a5.53,5.53,0,0,1,2.73,1.31c1,.93,2,1.88,2.94,2.84l71.5,71.47c1.31,1.32,2.48,2.79,3.71,4.19l2,1h0a5.45,5.45,0,0,0,2.07-2A3.59,3.59,0,0,1,1171.18,781.89Z" transform="translate(-448.23 -17.45)"/><path class="cls-73" d="M959.85,727.56c1.33-3.5,2.63-7,3.94-10.51q4.46-11.94,8.93-23.88c1.07-2.87,2.13-5.73,3.21-8.6,1.67-4.45,3.37-8.9,5-13.36,1.6-4.3,3.18-8.61,4.77-12.92,1.64-4.47,3.25-8.94,4.91-13.41s3.49-9.22,5.2-13.84c1.53-4.15,3-8.32,4.52-12.47q4.53-12.18,9.13-24.35a14.29,14.29,0,0,1,3-5.3h0v-1a8.75,8.75,0,0,1-1.45-.46c-6.6-3.54-13-7.4-19.74-10.7-.46-.22-.88-.53-1.32-.78-1.78-1-3.54-2-5.34-3q-7.17-3.9-14.36-7.76c-.15-.08-.29-.19-.44-.27-5.35-3-10.69-6-16-8.92-4.33-2.38-8.76-4.57-13-7.12-3.65-2.2-7.44-4.11-11.26-6h0c.1,1,.15,2,.3,3,.89,5.54,1.84,11.07,2.68,16.62.87,5.72,1.6,11.45,2.46,17.17.89,5.89,1.89,11.75,2.79,17.64.79,5.21,1.36,10.46,2.28,15.65,1.12,6.36,2,12.77,3,19.15.22,1.35.57,2.67.76,4,.83,5.72,1.46,11.48,2.48,17.16,1.48,8.21,2.4,16.49,3.78,24.71.5,3,.82,6.07,1.32,9.09.67,4,1.48,8,1.88,12.1.28,2.87.78,5.73,1.23,8.58.86,5.38,1.76,10.74,2.6,16.12.15,1,.1,2,.15,3.06h0a6.91,6.91,0,0,1,.64.79C958.69,729.34,959.36,728.86,959.85,727.56Z" transform="translate(-448.23 -17.45)"/><path class="cls-74" d="M1167,799.87c.06-4.25,1.18-8.37,1.41-12.6a7.65,7.65,0,0,1,.67-1.91h0l-2-1a3.54,3.54,0,0,1-.88.5,49.41,49.41,0,0,1-10.55,1.55c-4.25,0-8.5,0-12.76,0a31.9,31.9,0,0,0-7.09.6,23.16,23.16,0,0,1-4.56.4c-2.89.06-5.78,0-8.67,0a41.73,41.73,0,0,0-10.15.76,17.1,17.1,0,0,1-4.06.25c-4.08,0-8.16,0-12.25,0a31.19,31.19,0,0,0-6.08.55c-4.2.83-8.46.53-12.7.29a2.35,2.35,0,0,1-2.12-1.91c-.16-1-.19-2-.28-3h0c-1.18,1.53-1,3.34-1,5.1h0c.58.61,1.12,1.27,1.75,1.83,1.39,1.25,2.81,2.45,4.24,3.65s2.61,2.16,4,3.21c3.34,2.61,6.71,5.19,10,7.82a62.72,62.72,0,0,1,5.89,4.85,91.86,91.86,0,0,0,8.65,7.12c2.66,2.1,5.35,4.18,8,6.34s5,4.07,7.45,6.17c3.09,2.65,6.35,5.11,9.58,7.6,1.59-1.4,3.15-2.85,4.56-4.23,8-7.92,8.33-8.41,9.88-14l1.55-5.79,6.62-2.61a66.88,66.88,0,0,1,10.11-3c.14-1.14.28-2.27.41-3.41A50.61,50.61,0,0,0,1167,799.87Z" transform="translate(-448.23 -17.45)"/><path class="cls-75" d="M1091.81,708.67c-1-1-2-1.91-2.94-2.84a5.53,5.53,0,0,0-2.73-1.31h0a6.07,6.07,0,0,1-1,4.1h0c-.13,1.86-.14,3.74-.43,5.58-1,6.54-2.26,13-2.77,19.66-.07.85-.31,1.68-.44,2.51-.81,5.21-1.89,10.38-2.35,15.62-.55,6.11-2,12.06-2.56,18.16-.38,4.05-1.11,8.07-1.66,12.1a19.77,19.77,0,0,0-.06,2h0c.09,1,.12,2,.28,3a2.35,2.35,0,0,0,2.12,1.91c4.24.24,8.5.54,12.7-.29a31.19,31.19,0,0,1,6.08-.55c4.09,0,8.17,0,12.25,0a17.1,17.1,0,0,0,4.06-.25,41.73,41.73,0,0,1,10.15-.76c2.89,0,5.78,0,8.67,0a23.16,23.16,0,0,0,4.56-.4,31.9,31.9,0,0,1,7.09-.6c4.26,0,8.51,0,12.76,0a49.41,49.41,0,0,0,10.55-1.55,3.54,3.54,0,0,0,.88-.5c-1.23-1.4-2.4-2.87-3.71-4.19Z" transform="translate(-448.23 -17.45)"/><path class="cls-72" d="M1086.14,704.53a5.88,5.88,0,0,0-1,4.11h0A6.07,6.07,0,0,0,1086.14,704.53Z" transform="translate(-448.23 -17.45)"/><path class="cls-76" d="M1258.12,642.14h0c-.81,2.82-2.58,5.14-4.08,7.59-2.48,4.06-5.11,8-7.65,12-2,3.16-3.94,6.36-5.92,9.53-2.78,4.47-5.55,8.95-8.36,13.41s-5.7,8.86-8.52,13.31c-1.91,3-3.82,6-5.63,9.1q-4,6.83-8.36,13.41c-2.9,4.4-5.72,8.85-8.54,13.3q-5.58,8.83-11.13,17.7c-.54.86-1.09,1.71-1.63,2.58-2.6,4.18-5.19,8.38-7.81,12.55-2.35,3.74-4.75,7.45-7.09,11.2-.8,1.3-1.55,2.64-2.22,4a3.59,3.59,0,0,0,0,1.47,20.07,20.07,0,0,0,4.63-3.13c1-.92,2.13-1.69,3.22-2.51,4.21-3.17,8.46-6.28,12.63-9.5,5.65-4.36,11.22-8.83,16.87-13.19s11.46-8.52,17-13c4.51-3.61,9.16-7,13.76-10.55,10.14-7.73,20.29-15.43,30.33-23.29,7.36-5.76,14.87-11.33,22.32-17h0c0-.33,0-.67,0-1h0q-14.72-22.05-29.43-44.11c-.85-1.27-1.56-2.63-2.34-4h-2Z" transform="translate(-448.23 -17.45)"/><path class="cls-77" d="M886,598.27c3.26-4.15,6.56-8.27,9.79-12.44,3.76-4.84,7.43-9.74,11.2-14.58,4.07-5.24,8.23-10.41,12.31-15.65,2.94-3.75,5.8-7.56,8.73-11.32a11.62,11.62,0,0,1,1.52-1.35h0c0-.35,0-.7,0-1a33.83,33.83,0,0,1-3.5-.69c-7-2.17-14-4.39-21-6.61-8.13-2.6-16.18-5.38-24.35-7.85-11.09-3.37-22-7.27-33.11-10.64-10.12-3.08-20.14-6.44-30.21-9.67-.48-.16-1-.24-1.49-.36a3,3,0,0,0-1.95,2.74c-.06,1.86-.09,3.73-.09,5.6v26.52c.86.62,1,1.33,1,2.76s.24,4.33.49,6.45c.48,3.54.48,3.75-1.47,3.76v29.33c.08.46.16.94.24,1.45.9,5.22,1.8,9.8,2,10.2s9.8.66,21.15.66H858.1l.33,1.79c.24,1.07.57,3.6.81,5.8.66,5.8,3.11,9.72,9,14.45.65.52,1.24,1,1.77,1.44,4.42-5.67,8.79-11.37,13.18-17.06C884.12,600.73,885,599.47,886,598.27Z" transform="translate(-448.23 -17.45)"/><path class="cls-78" d="M1013.47,587.87l0,0" transform="translate(-448.23 -17.45)"/><path class="cls-78" d="M1013.47,587.87l1-1" transform="translate(-448.23 -17.45)"/><path class="cls-79" d="M813.77,553.88c-1.31,0-3.51,1.3-6,3.51l-3.92,3.51,4.32,7.1c3.69,6.08,4.34,7.74,5.64,15.21V553.88Z" transform="translate(-448.23 -17.45)"/><path class="cls-79" d="M813.94,508.79a3,3,0,0,1,1.95-2.74l-1-2h0a22.63,22.63,0,0,1-6.41,3L772,519.14q4.61,1.44,9.31,2.81L803,528.24l1.71,4.9c1.64,4.57,2,4.9,6,6.37a14.64,14.64,0,0,1,3.19,1.4V514.39C813.85,512.52,813.88,510.65,813.94,508.79Z" transform="translate(-448.23 -17.45)"/><path class="cls-80" d="M738.55,500.12c-1.22-2.24-2.52-4.44-3.7-6.7-1.65-3.16-3-6.5-4.88-9.53-2.76-4.52-5-9.3-7.41-14-.79-1.51-1.57-3-2.39-4.51-1.22-2.23-2.53-4.43-3.71-6.69-1.65-3.16-3-6.5-4.88-9.54-2.85-4.65-5.13-9.6-7.64-14.42-.71-1.36-1.42-2.72-2.15-4.06-1.31-2.39-2.68-4.73-3.94-7.14-1.66-3.17-3.05-6.49-4.91-9.53-2.22-3.64-4.07-7.46-6-11.25-1.56-3-3.06-6.07-4.87-9a22.91,22.91,0,0,1-3.35-7.41h0a5.16,5.16,0,0,0-1,2.86c0,1.19-.06,2.38-.06,3.57q0,16.95,0,33.89a9.45,9.45,0,0,1,2.08,1.83l1.72,2.2-2,6.61c-1.64,5.88-1.88,7.76-1.39,15.27l.49,8.58,6,9c8.16,12.08,14,17.23,29.23,25.55a260,260,0,0,0,29.34,13.32c-.73-1.48-1.46-3-2.22-4.44S739.37,501.61,738.55,500.12Z" transform="translate(-448.23 -17.45)"/><path class="cls-81" d="M1257.11,642.17l-1.07,1" transform="translate(-448.23 -17.45)"/></svg>