<svg id="Capa_1" data-name="Capa 1" xmlns="http://www.w3.org/2000/svg" viewBox="0 0 133.68 98.2"><defs><style>.cls-1{fill:#54565a;}.cls-2{fill:#e94c35;}.cls-3{fill:#b91f3c;}.cls-4{fill:#11b6ce;}.cls-5{fill:#2ea14a;}.cls-6{fill:#3583c5;}.cls-7{fill:#c8d762;}.cls-8{fill:#de2681;}.cls-9{fill:#fdca2e;}.cls-10{fill:#fef5f5;opacity:0.25;}</style></defs><title>tech_logos_pais</title><path class="cls-1" d="M20,26H15l.58-5.48v-.14c0-.83-.37-2.77-3.83-2.77h-.27c-3.19,0-3.89,1.62-4,2.62L6.77,26h-3c-1.11,0-3,.55-3,4.29,0,2.89,1.87,3.11,2.45,3.11H6L3.79,54.87V55c0,5.54,3.1,8.59,8.73,8.59,4.13,0,5.42-1.74,5.78-3.2a11.05,11.05,0,0,0,.37-2.52c0-1.7-1.13-2.15-1.79-2.15A4.84,4.84,0,0,0,15.6,56a6.38,6.38,0,0,1-1.7.19c-.94,0-1.85-.19-1.85-2.44,0-.55.37-4.56,2.11-20.34h3.92a4,4,0,0,0,3.07-1.56,5,5,0,0,0,1.23-3.26A2.33,2.33,0,0,0,20,26Z"/><path class="cls-1" d="M46.12,25.61c-6.54,0-11.49,2.21-14.74,6.58S26.63,42,26.63,48.6c0,9.81,5.62,15,16.25,15A25.42,25.42,0,0,0,50,62.45c3-.87,4.67-2.27,5-4.15a16.84,16.84,0,0,0,.35-3c0-2.23-1.49-2.35-1.79-2.35s-.89.16-2.26,1a15.34,15.34,0,0,1-8,2.19c-2.78,0-4.9-.61-6.3-1.82-1.21-1-1.88-2.89-2-5.48a36,36,0,0,0,4.33.24,28.16,28.16,0,0,0,12.81-2.71,11.3,11.3,0,0,0,4.68-4.27,12.08,12.08,0,0,0,1.67-6.37,9.83,9.83,0,0,0-3.12-7C53.35,26.69,50.22,25.61,46.12,25.61ZM45.53,33A5.29,5.29,0,0,1,49,34a2.73,2.73,0,0,1,1.14,2.21,3.65,3.65,0,0,1-.87,2.44,6.29,6.29,0,0,1-2.18,1.69,21.32,21.32,0,0,1-8.37,1.35H35.61C36.83,35.87,40.08,33,45.53,33Z"/><path class="cls-1" d="M88.79,26.84a18.29,18.29,0,0,0-7.23-1.23A17.54,17.54,0,0,0,70.65,29a17.85,17.85,0,0,0-6.13,8.34A35.4,35.4,0,0,0,62.79,49c0,4.78,1.35,8.45,4,10.91s6.52,3.66,11.6,3.66a30.22,30.22,0,0,0,6.19-.69c2.64-.56,4.16-1.7,4.49-3.39a15.78,15.78,0,0,0,.35-3c0-2.22-1.32-2.39-1.72-2.39s-.5,0-1.8.58a16.89,16.89,0,0,1-7.05,1.47c-2.73,0-4.71-.63-5.87-1.86S71.19,50.94,71.19,48c0-5.31.92-9.2,2.74-11.58A7.88,7.88,0,0,1,80.5,33c2.8,0,4.89.43,6.22,1.31.8.51,1.08.67,1.51.67A3.68,3.68,0,0,0,91,33.14a5,5,0,0,0,1.13-2.77C92.13,28.31,89.62,27.21,88.79,26.84Z"/><path class="cls-2" d="M110.52,27.5a16.11,16.11,0,0,0-2.67,1.93,24,24,0,0,0-9.6,13.41L97,54.48a18.57,18.57,0,0,1,8.43-2.16l1-9.77c1.23-3.46,2.72-5.94,4.43-7.36a10.91,10.91,0,0,1,2.34-1.52A5.6,5.6,0,0,0,110.52,27.5Z"/><path class="cls-3" d="M96.39,60.48v.14c0,.82.37,2.71,3.84,2.71h.26c3.25,0,4-1.62,4.09-2.64l.88-8.37A18.57,18.57,0,0,0,97,54.48Z"/><path class="cls-4" d="M127.37,38.91l.32-3.26v-.13c0-6.48-3.48-9.91-10-9.91a14.11,14.11,0,0,0-7.13,1.89,5.6,5.6,0,0,1,2.72,6.17,5.77,5.77,0,0,1,2.43-.59c2.63,0,3.7,1.09,3.7,3.75,0,.13-.05.66-.22,2.37A12.39,12.39,0,0,0,127.37,38.91Z"/><path class="cls-5" d="M128.62,55.86l-1.9.33a2.11,2.11,0,0,1-.67-.14c-1,1.17-2.09,3.4-2.41,7.48a10.6,10.6,0,0,0,1.15.07,7.74,7.74,0,0,0,3-.63,3.61,3.61,0,0,0,2.33-2.81,13.56,13.56,0,0,0,.25-2.25A1.79,1.79,0,0,0,128.62,55.86Z"/><path class="cls-6" d="M127.37,38.91a12.39,12.39,0,0,1-8.22.29c-.14,1.35-.36,3.44-.7,6.65-.69,6.43-.87,8.62-.92,9.45a21.47,21.47,0,0,1,8.57-3.63Z"/><path class="cls-7" d="M126,56a2.86,2.86,0,0,1-.17-1.15l.32-3.2a21.47,21.47,0,0,0-8.57,3.63c0,.29,0,.42,0,.5,0,4.6,2.16,7.3,6.12,7.73.32-4.08,1.44-6.31,2.41-7.48Z"/><path class="cls-8" d="M108.59,22.49l.93-8.69v-.14c0-.84-.37-2.78-3.83-2.78h-.27c-3.24,0-4,1.63-4.09,2.64l-.45,4.32A15.52,15.52,0,0,0,108.59,22.49Z"/><path class="cls-9" d="M107.85,29.43l.74-6.94a15.52,15.52,0,0,1-7.7-4.65l-2.64,25A24,24,0,0,1,107.85,29.43Z"/><path class="cls-10" d="M99,60.62v-.14l4.95-47c.12-.87.67-2.2,2.89-2.55a7,7,0,0,0-1.18-.09h-.27c-3.24,0-4,1.63-4.09,2.64l-5,47v.14c0,.82.37,2.71,3.84,2.71h.26a7.24,7.24,0,0,0,1.2-.09C99.32,62.86,99,61.33,99,60.62Z"/><path class="cls-10" d="M120.17,55.8c0-.32,0-1.27.93-9.95.79-7.3.91-8.78.92-9,0-2.66-1.07-3.75-3.69-3.75a5.33,5.33,0,0,0-1.23.16c1.58.38,2.27,1.49,2.27,3.59,0,.24-.13,1.72-.92,9-.93,8.68-.93,9.63-.93,9.95,0,5,2.58,7.8,7.27,7.8a6.6,6.6,0,0,0,1.16-.11C122.21,62.94,120.17,60.26,120.17,55.8Z"/><path class="cls-6" d="M86.35,70.11h3a4.07,4.07,0,0,1,2.49.61,1.92,1.92,0,0,1,.79,1.59A2.78,2.78,0,0,1,92.08,74a3.08,3.08,0,0,1-1.35,1v.06a2.13,2.13,0,0,1,1.3.79,2.26,2.26,0,0,1,.48,1.42,2.92,2.92,0,0,1-1.08,2.43,4.66,4.66,0,0,1-3,.87H85.25a.64.64,0,0,1-.42-.11.34.34,0,0,1-.12-.27c0-.11.09-1,.25-2.51s.41-3.9.73-7A.59.59,0,0,1,86.35,70.11Zm2.28,8.53a1.65,1.65,0,0,0,1.1-.35,1.24,1.24,0,0,0,.41-1c0-.69-.5-1-1.5-1H87.41l-.25,2.38Zm0-4.35a1.57,1.57,0,0,0,1.11-.37,1.18,1.18,0,0,0,.4-.92c0-.63-.41-.94-1.24-.94H87.86l-.24,2.23Z"/><path class="cls-6" d="M95.18,70.11h2.93c2.31,0,3.46.81,3.46,2.44a2.77,2.77,0,0,1-.54,1.71,3.14,3.14,0,0,1-1.48,1v.06a1.33,1.33,0,0,1,.52.5,3.73,3.73,0,0,1,.41.88l1,3.3a1.35,1.35,0,0,1,0,.29q0,.3-.93.3H100c-.49,0-.77-.11-.84-.32l-.88-2.92a1.46,1.46,0,0,0-.45-.7,1.63,1.63,0,0,0-1-.2h-.59l-.39,3.66c0,.32-.34.48-.94.48h-.51c-.57,0-.86-.16-.86-.48l1-9.45A.59.59,0,0,1,95.18,70.11Zm2.69,4.39a1.19,1.19,0,0,0,.89-.42,1.31,1.31,0,0,0,.4-.94,1,1,0,0,0-.3-.8,1.21,1.21,0,0,0-.84-.27H96.7l-.26,2.43Z"/><path class="cls-6" d="M106.94,70.08h.78c.5,0,.78.1.83.31L110.92,80a.77.77,0,0,1,0,.25c0,.23-.27.35-.81.35h-.66c-.49,0-.76-.11-.81-.32l-.43-1.83h-3.63l-.83,1.83c-.1.21-.34.32-.72.32h-.6q-.87,0-.87-.3a.71.71,0,0,1,.09-.3l4.37-9.65C106.15,70.18,106.44,70.08,106.94,70.08Zm-.27,3.76-1.2,2.67h2.31l-.6-2.67-.12-1H107A8,8,0,0,1,106.67,73.84Z"/><path class="cls-6" d="M113.36,70.71a4,4,0,0,1,1.23-.55,6.14,6.14,0,0,1,1.59-.17,4.23,4.23,0,0,1,1.66.31c.5.21.74.45.74.71a1.54,1.54,0,0,1-.35.82c-.23.34-.44.51-.61.51a.82.82,0,0,1-.27-.1,2.77,2.77,0,0,0-1.2-.27,3.18,3.18,0,0,0-.94.1,1.1,1.1,0,0,0-.47.27,1,1,0,0,0-.24.65.83.83,0,0,0,.4.66,4.64,4.64,0,0,0,1,.53c.38.15.76.33,1.14.52a2.6,2.6,0,0,1,1,.88,2.46,2.46,0,0,1,.4,1.43,4.5,4.5,0,0,1-.23,1.52,3,3,0,0,1-.6,1.07,3.14,3.14,0,0,1-.88.68,4.44,4.44,0,0,1-2,.45,5.13,5.13,0,0,1-2.34-.48q-.54-.28-.54-.69c0-1.11.13-1.67.39-1.67a1.26,1.26,0,0,1,.39.23,3.28,3.28,0,0,0,1.92.64,2,2,0,0,0,1.07-.27,1,1,0,0,0,.45-.93.88.88,0,0,0-.29-.64,2,2,0,0,0-.72-.45,9.07,9.07,0,0,1-.93-.42,10.32,10.32,0,0,1-.93-.54,2.09,2.09,0,0,1-.72-.8,2.83,2.83,0,0,1-.28-1.36,3.47,3.47,0,0,1,.34-1.54A2.66,2.66,0,0,1,113.36,70.71Z"/><path class="cls-6" d="M120.68,80.64h-.52c-.57,0-.86-.16-.86-.47l1-9.61c0-.32.34-.48.94-.48h.53c.57,0,.85.15.85.46l-1,9.62C121.6,80.48,121.28,80.64,120.68,80.64Z"/><path class="cls-6" d="M125.57,70.08h.53c.57,0,.85.15.85.46l-.85,8.1h3.34q.39,0,.39.6c0,.91-.19,1.37-.57,1.37h-5.1a.64.64,0,0,1-.42-.11.47.47,0,0,1-.12-.37l1-9.57C124.66,70.24,125,70.08,125.57,70.08Z"/></svg>